solid TEC-1G_v1
facet normal -0.707106781186546 0.707106781186549 0.0
outer loop
vertex 3.37867965644037 120.821320343559 16.9833923166419
vertex 4.00000000000002 121.298076211353 4.48339231664188
vertex 3.37867965644037 120.821320343559 4.48339231664188
endloop
endfacet
facet normal -0.5 0.866025403784439 0.0
outer loop
vertex 4.00000000000002 121.298076211353 4.48339231664188
vertex 3.37867965644037 120.821320343559 16.9833923166419
vertex 4.00000000000002 121.298076211353 16.9833923166419
endloop
endfacet
facet normal -1.0 -3.20799956243288e-016 0.0
outer loop
vertex 6.50000000000001 118.7 16.9833923166419
vertex 6.46592582628908 118.441180954897 4.48339231664188
vertex 6.46592582628908 118.441180954897 16.9833923166419
endloop
endfacet
facet normal -0.96592582628907 0.258819045102514 0.0
outer loop
vertex 6.46592582628908 118.441180954897 4.48339231664188
vertex 6.50000000000001 118.7 16.9833923166419
vertex 6.50000000000001 118.7 4.48339231664188
endloop
endfacet
facet normal -0.707106781186547 -0.707106781186548 0.0
outer loop
vertex 6.20710678118656 119.407106781186 16.9833923166419
vertex 6.00000000000001 119.566025403784 4.48339231664188
vertex 6.20710678118656 119.407106781186 4.48339231664188
endloop
endfacet
facet normal -0.499999999999998 -0.86602540378444 0.0
outer loop
vertex 6.00000000000001 119.566025403784 4.48339231664188
vertex 6.20710678118656 119.407106781186 16.9833923166419
vertex 6.00000000000001 119.566025403784 16.9833923166419
endloop
endfacet
facet normal -0.965925826289069 -0.258819045102517 0.0
outer loop
vertex 6.46592582628908 118.958819045102 16.9833923166419
vertex 6.50000000000001 118.7 4.48339231664188
vertex 6.50000000000001 118.7 16.9833923166419
endloop
endfacet
facet normal -1.0 -3.20799956243288e-016 0.0
outer loop
vertex 6.50000000000001 118.7 4.48339231664188
vertex 6.46592582628908 118.958819045102 16.9833923166419
vertex 6.46592582628908 118.958819045102 4.48339231664188
endloop
endfacet
facet normal -0.258819045102523 0.965925826289068 0.0
outer loop
vertex 4.72354286469245 121.597777478867 16.9833923166419
vertex 5.50000000000001 121.7 4.48339231664188
vertex 4.72354286469245 121.597777478867 4.48339231664188
endloop
endfacet
facet normal -3.38622176034582e-016 1.0 0.0
outer loop
vertex 5.50000000000001 121.7 4.48339231664188
vertex 4.72354286469245 121.597777478867 16.9833923166419
vertex 5.50000000000001 121.7 16.9833923166419
endloop
endfacet
facet normal 0.258819045102523 0.965925826289068 1.0696541547908e-020
outer loop
vertex 5.24118095489749 117.734074173711 16.9833923166419
vertex 5.50000000000001 117.7 4.48339231664188
vertex 5.24118095489749 117.734074173711 4.48339231664188
endloop
endfacet
facet normal -2.94066626556348e-016 1.0 2.51265481532468e-020
outer loop
vertex 5.50000000000001 117.7 4.48339231664188
vertex 5.24118095489749 117.734074173711 16.9833923166419
vertex 5.50000000000001 117.7 16.9833923166419
endloop
endfacet
facet normal 0.707106781186548 0.707106781186547 0.0
outer loop
vertex 7.62132034355965 120.821320343559 4.48339231664188
vertex 8.09807621135333 120.2 16.9833923166419
vertex 8.09807621135333 120.2 4.48339231664188
endloop
endfacet
facet normal 0.866025403784439 0.5 0.0
outer loop
vertex 8.09807621135333 120.2 16.9833923166419
vertex 7.62132034355965 120.821320343559 4.48339231664188
vertex 7.62132034355965 120.821320343559 16.9833923166419
endloop
endfacet
facet normal 2.40333777568835e-017 9.37230697946919e-017 1.0
outer loop
vertex 2.50000000000002 118.1 16.9833923166419
vertex 2.60222252113281 119.476457135307 16.9833923166419
vertex 2.50000000000001 118.7 16.9833923166419
endloop
endfacet
facet normal 2.40333777568835e-017 9.37230697946919e-017 1.0
outer loop
vertex 2.60222252113281 119.476457135307 16.9833923166419
vertex 2.50000000000002 118.1 16.9833923166419
vertex 4.71070729501346 118.1 16.9833923166419
endloop
endfacet
facet normal 2.40333777568835e-017 9.37230697946919e-017 1.0
outer loop
vertex 2.60222252113281 119.476457135307 16.9833923166419
vertex 4.71070729501346 118.1 16.9833923166419
vertex 2.9019237886467 120.2 16.9833923166419
endloop
endfacet
facet normal 2.40333777568835e-017 9.37230697946919e-017 1.0
outer loop
vertex 2.9019237886467 120.2 16.9833923166419
vertex 4.71070729501346 118.1 16.9833923166419
vertex 4.63397459621557 118.2 16.9833923166419
endloop
endfacet
facet normal 2.40333777568835e-017 9.37230697946919e-017 1.0
outer loop
vertex 2.9019237886467 120.2 16.9833923166419
vertex 4.63397459621557 118.2 16.9833923166419
vertex 3.37867965644037 120.821320343559 16.9833923166419
endloop
endfacet
facet normal 2.40333777568835e-017 9.37230697946919e-017 1.0
outer loop
vertex 3.37867965644037 120.821320343559 16.9833923166419
vertex 4.63397459621557 118.2 16.9833923166419
vertex 4.53407417371094 118.441180954897 16.9833923166419
endloop
endfacet
facet normal 2.40333777568835e-017 9.37230697946919e-017 1.0
outer loop
vertex 3.37867965644037 120.821320343559 16.9833923166419
vertex 4.53407417371094 118.441180954897 16.9833923166419
vertex 4.00000000000002 121.298076211353 16.9833923166419
endloop
endfacet
facet normal 2.40333777568835e-017 9.37230697946919e-017 1.0
outer loop
vertex 4.00000000000002 121.298076211353 16.9833923166419
vertex 4.53407417371094 118.441180954897 16.9833923166419
vertex 4.50000000000001 118.7 16.9833923166419
endloop
endfacet
facet normal 2.40333777568835e-017 9.37230697946919e-017 1.0
outer loop
vertex 8.50000000000002 118.1 16.9833923166419
vertex 6.36602540378445 118.2 16.9833923166419
vertex 6.28929270498656 118.1 16.9833923166419
endloop
endfacet
facet normal 2.40333777568835e-017 9.37230697946919e-017 1.0
outer loop
vertex 6.36602540378445 118.2 16.9833923166419
vertex 8.50000000000002 118.1 16.9833923166419
vertex 6.46592582628908 118.441180954897 16.9833923166419
endloop
endfacet
facet normal 2.40333777568835e-017 9.37230697946919e-017 1.0
outer loop
vertex 6.46592582628908 118.441180954897 16.9833923166419
vertex 8.50000000000002 118.1 16.9833923166419
vertex 6.50000000000001 118.7 16.9833923166419
endloop
endfacet
facet normal 2.40333777568835e-017 9.37230697946919e-017 1.0
outer loop
vertex 6.50000000000001 118.7 16.9833923166419
vertex 8.50000000000002 118.1 16.9833923166419
vertex 7.00000000000002 121.298076211353 16.9833923166419
endloop
endfacet
facet normal 2.40333777568835e-017 9.37230697946919e-017 1.0
outer loop
vertex 7.00000000000002 121.298076211353 16.9833923166419
vertex 8.50000000000002 118.1 16.9833923166419
vertex 7.62132034355965 120.821320343559 16.9833923166419
endloop
endfacet
facet normal 2.40333777568835e-017 9.37230697946919e-017 1.0
outer loop
vertex 7.62132034355965 120.821320343559 16.9833923166419
vertex 8.50000000000002 118.1 16.9833923166419
vertex 8.09807621135333 120.2 16.9833923166419
endloop
endfacet
facet normal 2.40333777568835e-017 9.37230697946919e-017 1.0
outer loop
vertex 8.09807621135333 120.2 16.9833923166419
vertex 8.50000000000002 118.1 16.9833923166419
vertex 8.39777747886722 119.476457135307 16.9833923166419
endloop
endfacet
facet normal 2.40333777568835e-017 9.37230697946919e-017 1.0
outer loop
vertex 8.39777747886722 119.476457135307 16.9833923166419
vertex 8.50000000000002 118.1 16.9833923166419
vertex 8.50000000000001 118.7 16.9833923166419
endloop
endfacet
facet normal 2.40333777568835e-017 9.37230697946919e-017 1.0
outer loop
vertex 4.50000000000001 118.7 16.9833923166419
vertex 4.72354286469245 121.597777478867 16.9833923166419
vertex 4.00000000000002 121.298076211353 16.9833923166419
endloop
endfacet
facet normal 2.40333777568835e-017 9.37230697946919e-017 1.0
outer loop
vertex 4.72354286469245 121.597777478867 16.9833923166419
vertex 4.50000000000001 118.7 16.9833923166419
vertex 4.53407417371095 118.958819045102 16.9833923166419
endloop
endfacet
facet normal 2.40333777568835e-017 9.37230697946919e-017 1.0
outer loop
vertex 4.72354286469245 121.597777478867 16.9833923166419
vertex 4.53407417371095 118.958819045102 16.9833923166419
vertex 4.63397459621557 119.2 16.9833923166419
endloop
endfacet
facet normal 2.40333777568835e-017 9.37230697946919e-017 1.0
outer loop
vertex 4.72354286469245 121.597777478867 16.9833923166419
vertex 4.63397459621557 119.2 16.9833923166419
vertex 4.79289321881346 119.407106781186 16.9833923166419
endloop
endfacet
facet normal 2.40333777568835e-017 9.37230697946919e-017 1.0
outer loop
vertex 4.72354286469245 121.597777478867 16.9833923166419
vertex 4.79289321881346 119.407106781186 16.9833923166419
vertex 5.50000000000001 121.7 16.9833923166419
endloop
endfacet
facet normal 2.40333777568835e-017 9.37230697946919e-017 1.0
outer loop
vertex 5.50000000000001 121.7 16.9833923166419
vertex 4.79289321881346 119.407106781186 16.9833923166419
vertex 5.00000000000001 119.566025403784 16.9833923166419
endloop
endfacet
facet normal 2.40333777568835e-017 9.37230697946919e-017 1.0
outer loop
vertex 5.50000000000001 121.7 16.9833923166419
vertex 5.00000000000001 119.566025403784 16.9833923166419
vertex 5.24118095489749 119.665925826289 16.9833923166419
endloop
endfacet
facet normal 2.40333777568835e-017 9.37230697946919e-017 1.0
outer loop
vertex 5.50000000000001 121.7 16.9833923166419
vertex 5.24118095489749 119.665925826289 16.9833923166419
vertex 5.50000000000001 119.7 16.9833923166419
endloop
endfacet
facet normal 2.40333777568835e-017 9.37230697946919e-017 1.0
outer loop
vertex 5.50000000000001 121.7 16.9833923166419
vertex 5.50000000000001 119.7 16.9833923166419
vertex 5.75881904510254 119.665925826289 16.9833923166419
endloop
endfacet
facet normal 2.40333777568835e-017 9.37230697946919e-017 1.0
outer loop
vertex 5.50000000000001 121.7 16.9833923166419
vertex 5.75881904510254 119.665925826289 16.9833923166419
vertex 6.27645713530758 121.597777478867 16.9833923166419
endloop
endfacet
facet normal 2.40333777568835e-017 9.37230697946919e-017 1.0
outer loop
vertex 6.27645713530758 121.597777478867 16.9833923166419
vertex 5.75881904510254 119.665925826289 16.9833923166419
vertex 6.00000000000001 119.566025403784 16.9833923166419
endloop
endfacet
facet normal 2.40333777568835e-017 9.37230697946919e-017 1.0
outer loop
vertex 6.27645713530758 121.597777478867 16.9833923166419
vertex 6.00000000000001 119.566025403784 16.9833923166419
vertex 6.20710678118656 119.407106781186 16.9833923166419
endloop
endfacet
facet normal 2.40333777568835e-017 9.37230697946919e-017 1.0
outer loop
vertex 6.27645713530758 121.597777478867 16.9833923166419
vertex 6.20710678118656 119.407106781186 16.9833923166419
vertex 6.36602540378445 119.2 16.9833923166419
endloop
endfacet
facet normal 2.40333777568835e-017 9.37230697946919e-017 1.0
outer loop
vertex 6.27645713530758 121.597777478867 16.9833923166419
vertex 6.36602540378445 119.2 16.9833923166419
vertex 7.00000000000002 121.298076211353 16.9833923166419
endloop
endfacet
facet normal 2.40333777568835e-017 9.37230697946919e-017 1.0
outer loop
vertex 7.00000000000002 121.298076211353 16.9833923166419
vertex 6.36602540378445 119.2 16.9833923166419
vertex 6.46592582628908 118.958819045102 16.9833923166419
endloop
endfacet
facet normal 2.40333777568835e-017 9.37230697946919e-017 1.0
outer loop
vertex 7.00000000000002 121.298076211353 16.9833923166419
vertex 6.46592582628908 118.958819045102 16.9833923166419
vertex 6.50000000000001 118.7 16.9833923166419
endloop
endfacet
facet normal 1.0 9.39988827515968e-015 0.0
outer loop
vertex 8.50000000000001 118.7 4.48339231664188
vertex 8.50000000000002 118.1 16.9833923166419
vertex 8.50000000000002 118.1 4.48339231664188
endloop
endfacet
facet normal 1.0 9.39988827515968e-015 0.0
outer loop
vertex 8.50000000000002 118.1 16.9833923166419
vertex 8.50000000000001 118.7 4.48339231664188
vertex 8.50000000000001 118.7 16.9833923166419
endloop
endfacet
facet normal -3.33066907387547e-016 1.0 0.0
outer loop
vertex 11.83 101.85 15.2333923166419
vertex 27.3 101.85 4.48339231664187
vertex 11.83 101.85 4.48339231664187
endloop
endfacet
facet normal -3.33066907387547e-016 1.0 0.0
outer loop
vertex 27.3 101.85 4.48339231664187
vertex 11.83 101.85 15.2333923166419
vertex 27.3 101.85 15.2333923166419
endloop
endfacet
facet normal -0.866025403784439 0.5 0.0
outer loop
vertex 2.9019237886467 120.2 16.9833923166419
vertex 2.60222252113281 119.476457135307 4.48339231664188
vertex 2.60222252113281 119.476457135307 16.9833923166419
endloop
endfacet
facet normal -0.965925826289069 0.25881904510252 0.0
outer loop
vertex 2.60222252113281 119.476457135307 4.48339231664188
vertex 2.9019237886467 120.2 16.9833923166419
vertex 2.9019237886467 120.2 4.48339231664188
endloop
endfacet
facet normal 1.0 3.33066907387547e-016 0.0
outer loop
vertex 38.05 118.1 4.48339231664188
vertex 38.05 97.5999999999999 16.9833923166419
vertex 38.05 97.5999999999999 4.48339231664188
endloop
endfacet
facet normal 1.0 3.33066907387547e-016 0.0
outer loop
vertex 38.05 97.5999999999999 16.9833923166419
vertex 38.05 118.1 4.48339231664188
vertex 38.05 118.1 16.9833923166419
endloop
endfacet
facet normal 0.500000000000001 0.866025403784438 0.0
outer loop
vertex 7.00000000000002 121.298076211353 16.9833923166419
vertex 7.62132034355965 120.821320343559 4.48339231664188
vertex 7.00000000000002 121.298076211353 4.48339231664188
endloop
endfacet
facet normal 0.707106781186548 0.707106781186547 0.0
outer loop
vertex 7.62132034355965 120.821320343559 4.48339231664188
vertex 7.00000000000002 121.298076211353 16.9833923166419
vertex 7.62132034355965 120.821320343559 16.9833923166419
endloop
endfacet
facet normal 0.866025403784439 0.5 0.0
outer loop
vertex 8.09807621135333 120.2 4.48339231664188
vertex 8.39777747886722 119.476457135307 16.9833923166419
vertex 8.39777747886722 119.476457135307 4.48339231664188
endloop
endfacet
facet normal 0.965925826289068 0.258819045102521 0.0
outer loop
vertex 8.39777747886722 119.476457135307 16.9833923166419
vertex 8.09807621135333 120.2 4.48339231664188
vertex 8.09807621135333 120.2 16.9833923166419
endloop
endfacet
facet normal 0.965925826289069 0.258819045102517 0.0
outer loop
vertex 4.53407417371094 118.441180954897 4.48339231664188
vertex 4.63397459621557 118.2 16.9833923166419
vertex 4.63397459621557 118.2 4.48339231664188
endloop
endfacet
facet normal 0.866025403784451 0.499999999999979 4.88792210049827e-020
outer loop
vertex 4.63397459621557 118.2 16.9833923166419
vertex 4.53407417371094 118.441180954897 4.48339231664188
vertex 4.53407417371094 118.441180954897 16.9833923166419
endloop
endfacet
facet normal -3.38622176034582e-016 1.0 0.0
outer loop
vertex 5.50000000000001 121.7 16.9833923166419
vertex 6.27645713530758 121.597777478867 4.48339231664188
vertex 5.50000000000001 121.7 4.48339231664188
endloop
endfacet
facet normal 0.258819045102521 0.965925826289068 0.0
outer loop
vertex 6.27645713530758 121.597777478867 4.48339231664188
vertex 5.50000000000001 121.7 16.9833923166419
vertex 6.27645713530758 121.597777478867 16.9833923166419
endloop
endfacet
facet normal 1.0 3.33066907387547e-016 0.0
outer loop
vertex 11.83 113.85 4.48339231664187
vertex 11.83 101.85 15.2333923166419
vertex 11.83 101.85 4.48339231664187
endloop
endfacet
facet normal 1.0 3.33066907387547e-016 0.0
outer loop
vertex 11.83 101.85 15.2333923166419
vertex 11.83 113.85 4.48339231664187
vertex 11.83 113.85 15.2333923166419
endloop
endfacet
facet normal -1.0 -3.33066907387547e-016 0.0
outer loop
vertex 27.3 113.85 15.2333923166419
vertex 27.3 101.85 4.48339231664187
vertex 27.3 101.85 15.2333923166419
endloop
endfacet
facet normal -1.0 -3.33066907387547e-016 0.0
outer loop
vertex 27.3 101.85 4.48339231664187
vertex 27.3 113.85 15.2333923166419
vertex 27.3 113.85 4.48339231664187
endloop
endfacet
facet normal 3.33066907387547e-016 -1.0 0.0
outer loop
vertex 27.3 113.85 15.2333923166419
vertex 11.83 113.85 4.48339231664187
vertex 27.3 113.85 4.48339231664187
endloop
endfacet
facet normal 3.33066907387547e-016 -1.0 0.0
outer loop
vertex 11.83 113.85 4.48339231664187
vertex 27.3 113.85 15.2333923166419
vertex 11.83 113.85 15.2333923166419
endloop
endfacet
facet normal -1.0 -9.39988827515968e-015 0.0
outer loop
vertex 2.50000000000001 118.7 16.9833923166419
vertex 2.50000000000002 118.1 4.48339231664188
vertex 2.50000000000002 118.1 16.9833923166419
endloop
endfacet
facet normal -1.0 -9.39988827515968e-015 0.0
outer loop
vertex 2.50000000000002 118.1 4.48339231664188
vertex 2.50000000000001 118.7 16.9833923166419
vertex 2.50000000000001 118.7 4.48339231664188
endloop
endfacet
facet normal -0.79335334029122 0.608761429008741 2.84831747829626e-019
outer loop
vertex 6.28929270498656 118.1 16.9833923166419
vertex 6.20710678118656 117.992893218813 4.48339231664188
vertex 6.20710678118656 117.992893218813 16.9833923166419
endloop
endfacet
facet normal -0.707106781186535 0.70710678118656 1.43644774876812e-019
outer loop
vertex 6.20710678118656 117.992893218813 4.48339231664188
vertex 6.28929270498656 118.1 16.9833923166419
vertex 6.28929270498656 118.1 4.48339231664188
endloop
endfacet
facet normal 1.0 -9.66855423677688e-015 0.0
outer loop
vertex 4.50000000000001 118.7 4.48339231664188
vertex 4.53407417371094 118.441180954897 16.9833923166419
vertex 4.53407417371094 118.441180954897 4.48339231664188
endloop
endfacet
facet normal 0.965925826289069 0.258819045102517 0.0
outer loop
vertex 4.53407417371094 118.441180954897 16.9833923166419
vertex 4.50000000000001 118.7 4.48339231664188
vertex 4.50000000000001 118.7 16.9833923166419
endloop
endfacet
facet normal -0.499999999999999 0.86602540378444 1.6259162326373e-019
outer loop
vertex 6.00000000000001 117.833974596215 16.9833923166419
vertex 6.20710678118656 117.992893218813 4.48339231664188
vertex 6.00000000000001 117.833974596215 4.48339231664188
endloop
endfacet
facet normal -0.707106781186535 0.70710678118656 1.43644774876812e-019
outer loop
vertex 6.20710678118656 117.992893218813 4.48339231664188
vertex 6.00000000000001 117.833974596215 16.9833923166419
vertex 6.20710678118656 117.992893218813 16.9833923166419
endloop
endfacet
facet normal 0.96592582628907 -0.258819045102516 0.0
outer loop
vertex 4.53407417371095 118.958819045102 4.48339231664188
vertex 4.50000000000001 118.7 16.9833923166419
vertex 4.50000000000001 118.7 4.48339231664188
endloop
endfacet
facet normal 1.0 -9.66855423677688e-015 0.0
outer loop
vertex 4.50000000000001 118.7 16.9833923166419
vertex 4.53407417371095 118.958819045102 4.48339231664188
vertex 4.53407417371095 118.958819045102 16.9833923166419
endloop
endfacet
facet normal 3.33066907387547e-016 -1.0 0.0
outer loop
vertex 33.7 111.89 15.2333923166419
vertex 30.3 111.89 4.48339231664188
vertex 33.7 111.89 4.48339231664188
endloop
endfacet
facet normal 3.33066907387547e-016 -1.0 0.0
outer loop
vertex 30.3 111.89 4.48339231664188
vertex 33.7 111.89 15.2333923166419
vertex 30.3 111.89 15.2333923166419
endloop
endfacet
facet normal -0.707106781186546 0.707106781186549 0.0
outer loop
vertex 3.37867965644037 120.821320343559 16.9833923166419
vertex 2.9019237886467 120.2 4.48339231664188
vertex 2.9019237886467 120.2 16.9833923166419
endloop
endfacet
facet normal -0.866025403784439 0.5 0.0
outer loop
vertex 2.9019237886467 120.2 4.48339231664188
vertex 3.37867965644037 120.821320343559 16.9833923166419
vertex 3.37867965644037 120.821320343559 4.48339231664188
endloop
endfacet
facet normal 0.499999999999999 -0.86602540378444 0.0
outer loop
vertex 5.00000000000001 119.566025403784 16.9833923166419
vertex 4.79289321881346 119.407106781186 4.48339231664188
vertex 5.00000000000001 119.566025403784 4.48339231664188
endloop
endfacet
facet normal 0.707106781186545 -0.70710678118655 0.0
outer loop
vertex 4.79289321881346 119.407106781186 4.48339231664188
vertex 5.00000000000001 119.566025403784 16.9833923166419
vertex 4.79289321881346 119.407106781186 16.9833923166419
endloop
endfacet
facet normal -7.88599459700159e-018 2.63124086450832e-017 1.0
outer loop
vertex 38.05 97.5999999999999 16.9833923166419
vertex 0.0500000000000167 98.5999999999999 16.9833923166419
vertex 0.0500000000000167 97.5999999999999 16.9833923166419
endloop
endfacet
facet normal -7.88599459700159e-018 2.63124086450832e-017 1.0
outer loop
vertex 0.0500000000000167 98.5999999999999 16.9833923166419
vertex 38.05 97.5999999999999 16.9833923166419
vertex 37.05 98.5999999999999 16.9833923166419
endloop
endfacet
facet normal -7.88599459700159e-018 2.63124086450832e-017 1.0
outer loop
vertex 37.05 98.5999999999999 16.9833923166419
vertex 38.05 97.5999999999999 16.9833923166419
vertex 38.05 118.1 16.9833923166419
endloop
endfacet
facet normal -7.88599459700159e-018 2.63124086450832e-017 1.0
outer loop
vertex 0.0500000000000111 117.1 16.9833923166419
vertex 5.50000000000001 117.7 16.9833923166419
vertex 0.0500000000000111 118.1 16.9833923166419
endloop
endfacet
facet normal -7.88599459700159e-018 2.63124086450832e-017 1.0
outer loop
vertex 5.50000000000001 117.7 16.9833923166419
vertex 0.0500000000000111 117.1 16.9833923166419
vertex 37.05 117.1 16.9833923166419
endloop
endfacet
facet normal -7.88599459700159e-018 2.63124086450832e-017 1.0
outer loop
vertex 0.0500000000000111 118.1 16.9833923166419
vertex 5.50000000000001 117.7 16.9833923166419
vertex 5.24118095489749 117.734074173711 16.9833923166419
endloop
endfacet
facet normal -7.88599459700159e-018 2.63124086450832e-017 1.0
outer loop
vertex 0.0500000000000111 118.1 16.9833923166419
vertex 5.24118095489749 117.734074173711 16.9833923166419
vertex 2.50000000000002 118.1 16.9833923166419
endloop
endfacet
facet normal -7.88599459700159e-018 2.63124086450832e-017 1.0
outer loop
vertex 2.50000000000002 118.1 16.9833923166419
vertex 5.24118095489749 117.734074173711 16.9833923166419
vertex 5.00000000000001 117.833974596215 16.9833923166419
endloop
endfacet
facet normal -7.88599459700159e-018 2.63124086450832e-017 1.0
outer loop
vertex 2.50000000000002 118.1 16.9833923166419
vertex 5.00000000000001 117.833974596215 16.9833923166419
vertex 4.79289321881346 117.992893218813 16.9833923166419
endloop
endfacet
facet normal -7.88599459700159e-018 2.63124086450832e-017 1.0
outer loop
vertex 2.50000000000002 118.1 16.9833923166419
vertex 4.79289321881346 117.992893218813 16.9833923166419
vertex 4.71070729501346 118.1 16.9833923166419
endloop
endfacet
facet normal -7.88599459700159e-018 2.63124086450832e-017 1.0
outer loop
vertex 5.50000000000001 117.7 16.9833923166419
vertex 37.05 117.1 16.9833923166419
vertex 5.75881904510254 117.734074173711 16.9833923166419
endloop
endfacet
facet normal -7.88599459700159e-018 2.63124086450832e-017 1.0
outer loop
vertex 5.75881904510254 117.734074173711 16.9833923166419
vertex 37.05 117.1 16.9833923166419
vertex 6.00000000000001 117.833974596215 16.9833923166419
endloop
endfacet
facet normal -7.88599459700159e-018 2.63124086450832e-017 1.0
outer loop
vertex 6.00000000000001 117.833974596215 16.9833923166419
vertex 37.05 117.1 16.9833923166419
vertex 6.20710678118656 117.992893218813 16.9833923166419
endloop
endfacet
facet normal -7.88599459700159e-018 2.63124086450832e-017 1.0
outer loop
vertex 6.20710678118656 117.992893218813 16.9833923166419
vertex 37.05 117.1 16.9833923166419
vertex 6.28929270498656 118.1 16.9833923166419
endloop
endfacet
facet normal -7.88599459700159e-018 2.63124086450832e-017 1.0
outer loop
vertex 6.28929270498656 118.1 16.9833923166419
vertex 37.05 117.1 16.9833923166419
vertex 8.50000000000002 118.1 16.9833923166419
endloop
endfacet
facet normal -7.88599459700159e-018 2.63124086450832e-017 1.0
outer loop
vertex 8.50000000000002 118.1 16.9833923166419
vertex 37.05 117.1 16.9833923166419
vertex 38.05 118.1 16.9833923166419
endloop
endfacet
facet normal -7.88599459700159e-018 2.63124086450832e-017 1.0
outer loop
vertex 38.05 118.1 16.9833923166419
vertex 37.05 117.1 16.9833923166419
vertex 37.05 98.5999999999999 16.9833923166419
endloop
endfacet
facet normal 0.499999999999998 0.86602540378444 5.84103119163028e-020
outer loop
vertex 5.00000000000001 117.833974596215 16.9833923166419
vertex 5.24118095489749 117.734074173711 4.48339231664188
vertex 5.00000000000001 117.833974596215 4.48339231664188
endloop
endfacet
facet normal 0.258819045102523 0.965925826289068 1.0696541547908e-020
outer loop
vertex 5.24118095489749 117.734074173711 4.48339231664188
vertex 5.00000000000001 117.833974596215 16.9833923166419
vertex 5.24118095489749 117.734074173711 16.9833923166419
endloop
endfacet
facet normal 0.258819045102521 0.965925826289068 0.0
outer loop
vertex 6.27645713530758 121.597777478867 16.9833923166419
vertex 7.00000000000002 121.298076211353 4.48339231664188
vertex 6.27645713530758 121.597777478867 4.48339231664188
endloop
endfacet
facet normal 0.500000000000001 0.866025403784438 0.0
outer loop
vertex 7.00000000000002 121.298076211353 4.48339231664188
vertex 6.27645713530758 121.597777478867 16.9833923166419
vertex 7.00000000000002 121.298076211353 16.9833923166419
endloop
endfacet
facet normal -3.33066907387547e-016 1.0 0.0
outer loop
vertex 1.55000000000002 100.1 15.2333923166419
vertex 9.08000000000001 100.1 4.48339231664188
vertex 1.55000000000002 100.1 4.48339231664188
endloop
endfacet
facet normal -3.33066907387547e-016 1.0 0.0
outer loop
vertex 9.08000000000001 100.1 4.48339231664188
vertex 1.55000000000002 100.1 15.2333923166419
vertex 9.08000000000001 100.1 15.2333923166419
endloop
endfacet
facet normal -0.499999999999998 -0.86602540378444 0.0
outer loop
vertex 6.00000000000001 119.566025403784 16.9833923166419
vertex 5.75881904510254 119.665925826289 4.48339231664188
vertex 6.00000000000001 119.566025403784 4.48339231664188
endloop
endfacet
facet normal -0.258819045102523 -0.965925826289068 0.0
outer loop
vertex 5.75881904510254 119.665925826289 4.48339231664188
vertex 6.00000000000001 119.566025403784 16.9833923166419
vertex 5.75881904510254 119.665925826289 16.9833923166419
endloop
endfacet
facet normal -0.866025403784438 -0.500000000000001 0.0
outer loop
vertex 6.36602540378445 119.2 16.9833923166419
vertex 6.46592582628908 118.958819045102 4.48339231664188
vertex 6.46592582628908 118.958819045102 16.9833923166419
endloop
endfacet
facet normal -0.965925826289069 -0.258819045102517 0.0
outer loop
vertex 6.46592582628908 118.958819045102 4.48339231664188
vertex 6.36602540378445 119.2 16.9833923166419
vertex 6.36602540378445 119.2 4.48339231664188
endloop
endfacet
facet normal -0.866025403784449 0.499999999999982 3.12497414504796e-032
outer loop
vertex 6.36602540378445 118.2 16.9833923166419
vertex 6.28929270498656 118.1 4.48339231664188
vertex 6.28929270498656 118.1 16.9833923166419
endloop
endfacet
facet normal -0.793353340291264 0.608761429008683 6.19647911606765e-032
outer loop
vertex 6.28929270498656 118.1 4.48339231664188
vertex 6.36602540378445 118.2 16.9833923166419
vertex 6.36602540378445 118.2 4.48339231664188
endloop
endfacet
facet normal -7.47767860703414e-016 1.0 0.0
outer loop
vertex 30.3 103.81 15.2333923166419
vertex 33.7 103.81 4.48339231664188
vertex 30.3 103.81 4.48339231664188
endloop
endfacet
facet normal -7.47767860703414e-016 1.0 0.0
outer loop
vertex 33.7 103.81 4.48339231664188
vertex 30.3 103.81 15.2333923166419
vertex 33.7 103.81 15.2333923166419
endloop
endfacet
facet normal -0.965925826289069 0.25881904510252 0.0
outer loop
vertex 2.60222252113281 119.476457135307 16.9833923166419
vertex 2.50000000000001 118.7 4.48339231664188
vertex 2.50000000000001 118.7 16.9833923166419
endloop
endfacet
facet normal -0.99144486137381 0.130526192220051 0.0
outer loop
vertex 2.50000000000001 118.7 4.48339231664188
vertex 2.60222252113281 119.476457135307 16.9833923166419
vertex 2.60222252113281 119.476457135307 4.48339231664188
endloop
endfacet
facet normal 1.0 3.33066907387547e-016 0.0
outer loop
vertex 1.55000000000001 115.35 4.48339231664188
vertex 1.55000000000002 100.1 15.2333923166419
vertex 1.55000000000002 100.1 4.48339231664188
endloop
endfacet
facet normal 1.0 3.33066907387547e-016 0.0
outer loop
vertex 1.55000000000002 100.1 15.2333923166419
vertex 1.55000000000001 115.35 4.48339231664188
vertex 1.55000000000001 115.35 15.2333923166419
endloop
endfacet
facet normal 0.0 0.0 -1.0
outer loop
vertex 2.60222252113281 119.476457135307 4.48339231664188
vertex 2.50000000000002 118.1 4.48339231664188
vertex 2.50000000000001 118.7 4.48339231664188
endloop
endfacet
facet normal 0.0 0.0 -1.0
outer loop
vertex 4.72354286469245 121.597777478867 4.48339231664188
vertex 4.50000000000001 118.7 4.48339231664188
vertex 4.00000000000002 121.298076211353 4.48339231664188
endloop
endfacet
facet normal 0.0 0.0 -1.0
outer loop
vertex 4.50000000000001 118.7 4.48339231664188
vertex 4.72354286469245 121.597777478867 4.48339231664188
vertex 4.53407417371095 118.958819045102 4.48339231664188
endloop
endfacet
facet normal 0.0 0.0 -1.0
outer loop
vertex 4.53407417371095 118.958819045102 4.48339231664188
vertex 4.72354286469245 121.597777478867 4.48339231664188
vertex 4.63397459621557 119.2 4.48339231664188
endloop
endfacet
facet normal 0.0 0.0 -1.0
outer loop
vertex 4.63397459621557 119.2 4.48339231664188
vertex 4.72354286469245 121.597777478867 4.48339231664188
vertex 4.79289321881346 119.407106781186 4.48339231664188
endloop
endfacet
facet normal 0.0 0.0 -1.0
outer loop
vertex 4.79289321881346 119.407106781186 4.48339231664188
vertex 4.72354286469245 121.597777478867 4.48339231664188
vertex 5.50000000000001 121.7 4.48339231664188
endloop
endfacet
facet normal 0.0 0.0 -1.0
outer loop
vertex 4.79289321881346 119.407106781186 4.48339231664188
vertex 5.50000000000001 121.7 4.48339231664188
vertex 5.00000000000001 119.566025403784 4.48339231664188
endloop
endfacet
facet normal 0.0 0.0 -1.0
outer loop
vertex 5.00000000000001 119.566025403784 4.48339231664188
vertex 5.50000000000001 121.7 4.48339231664188
vertex 5.24118095489749 119.665925826289 4.48339231664188
endloop
endfacet
facet normal 0.0 0.0 -1.0
outer loop
vertex 5.24118095489749 119.665925826289 4.48339231664188
vertex 5.50000000000001 121.7 4.48339231664188
vertex 5.50000000000001 119.7 4.48339231664188
endloop
endfacet
facet normal 0.0 0.0 -1.0
outer loop
vertex 5.50000000000001 119.7 4.48339231664188
vertex 5.50000000000001 121.7 4.48339231664188
vertex 6.27645713530758 121.597777478867 4.48339231664188
endloop
endfacet
facet normal 0.0 0.0 -1.0
outer loop
vertex 5.50000000000001 119.7 4.48339231664188
vertex 6.27645713530758 121.597777478867 4.48339231664188
vertex 5.75881904510254 119.665925826289 4.48339231664188
endloop
endfacet
facet normal 0.0 0.0 -1.0
outer loop
vertex 5.75881904510254 119.665925826289 4.48339231664188
vertex 6.27645713530758 121.597777478867 4.48339231664188
vertex 6.00000000000001 119.566025403784 4.48339231664188
endloop
endfacet
facet normal 0.0 0.0 -1.0
outer loop
vertex 6.00000000000001 119.566025403784 4.48339231664188
vertex 6.27645713530758 121.597777478867 4.48339231664188
vertex 6.20710678118656 119.407106781186 4.48339231664188
endloop
endfacet
facet normal 0.0 0.0 -1.0
outer loop
vertex 6.20710678118656 119.407106781186 4.48339231664188
vertex 6.27645713530758 121.597777478867 4.48339231664188
vertex 6.36602540378445 119.2 4.48339231664188
endloop
endfacet
facet normal 0.0 0.0 -1.0
outer loop
vertex 6.36602540378445 119.2 4.48339231664188
vertex 6.27645713530758 121.597777478867 4.48339231664188
vertex 7.00000000000002 121.298076211353 4.48339231664188
endloop
endfacet
facet normal 0.0 0.0 -1.0
outer loop
vertex 6.36602540378445 119.2 4.48339231664188
vertex 7.00000000000002 121.298076211353 4.48339231664188
vertex 6.46592582628908 118.958819045102 4.48339231664188
endloop
endfacet
facet normal 0.0 0.0 -1.0
outer loop
vertex 6.46592582628908 118.958819045102 4.48339231664188
vertex 7.00000000000002 121.298076211353 4.48339231664188
vertex 6.50000000000001 118.7 4.48339231664188
endloop
endfacet
facet normal 0.0 0.0 -1.0
outer loop
vertex 33.7 111.89 4.48339231664188
vertex 30.3 111.89 4.48339231664188
vertex 33.7 116.85 4.48339231664188
endloop
endfacet
facet normal 0.0 0.0 -1.0
outer loop
vertex 0.0500000000000111 118.1 4.48339231664188
vertex 1.55000000000001 115.35 4.48339231664188
vertex 0.0500000000000167 97.5999999999999 4.48339231664188
endloop
endfacet
facet normal 0.0 0.0 -1.0
outer loop
vertex 1.55000000000001 115.35 4.48339231664188
vertex 0.0500000000000111 118.1 4.48339231664188
vertex 2.50000000000002 118.1 4.48339231664188
endloop
endfacet
facet normal 0.0 0.0 -1.0
outer loop
vertex 1.55000000000001 115.35 4.48339231664188
vertex 2.50000000000002 118.1 4.48339231664188
vertex 9.08000000000001 115.35 4.48339231664188
endloop
endfacet
facet normal 0.0 0.0 -1.0
outer loop
vertex 9.08000000000001 115.35 4.48339231664188
vertex 2.50000000000002 118.1 4.48339231664188
vertex 5.00000000000001 117.833974596215 4.48339231664188
endloop
endfacet
facet normal 0.0 0.0 -1.0
outer loop
vertex 5.00000000000001 117.833974596215 4.48339231664188
vertex 2.50000000000002 118.1 4.48339231664188
vertex 2.60222252113281 119.476457135307 4.48339231664188
endloop
endfacet
facet normal 0.0 0.0 -1.0
outer loop
vertex 5.00000000000001 117.833974596215 4.48339231664188
vertex 2.60222252113281 119.476457135307 4.48339231664188
vertex 4.79289321881346 117.992893218813 4.48339231664188
endloop
endfacet
facet normal 0.0 0.0 -1.0
outer loop
vertex 4.79289321881346 117.992893218813 4.48339231664188
vertex 2.60222252113281 119.476457135307 4.48339231664188
vertex 2.9019237886467 120.2 4.48339231664188
endloop
endfacet
facet normal 0.0 0.0 -1.0
outer loop
vertex 4.79289321881346 117.992893218813 4.48339231664188
vertex 2.9019237886467 120.2 4.48339231664188
vertex 4.71070729501346 118.1 4.48339231664188
endloop
endfacet
facet normal 0.0 0.0 -1.0
outer loop
vertex 4.71070729501346 118.1 4.48339231664188
vertex 2.9019237886467 120.2 4.48339231664188
vertex 4.63397459621557 118.2 4.48339231664188
endloop
endfacet
facet normal 0.0 0.0 -1.0
outer loop
vertex 4.63397459621557 118.2 4.48339231664188
vertex 2.9019237886467 120.2 4.48339231664188
vertex 3.37867965644037 120.821320343559 4.48339231664188
endloop
endfacet
facet normal 0.0 0.0 -1.0
outer loop
vertex 4.63397459621557 118.2 4.48339231664188
vertex 3.37867965644037 120.821320343559 4.48339231664188
vertex 4.53407417371094 118.441180954897 4.48339231664188
endloop
endfacet
facet normal 0.0 0.0 -1.0
outer loop
vertex 4.53407417371094 118.441180954897 4.48339231664188
vertex 3.37867965644037 120.821320343559 4.48339231664188
vertex 4.00000000000002 121.298076211353 4.48339231664188
endloop
endfacet
facet normal 0.0 0.0 -1.0
outer loop
vertex 4.53407417371094 118.441180954897 4.48339231664188
vertex 4.00000000000002 121.298076211353 4.48339231664188
vertex 4.50000000000001 118.7 4.48339231664188
endloop
endfacet
facet normal 0.0 0.0 -1.0
outer loop
vertex 9.08000000000001 115.35 4.48339231664188
vertex 5.00000000000001 117.833974596215 4.48339231664188
vertex 5.24118095489749 117.734074173711 4.48339231664188
endloop
endfacet
facet normal 0.0 0.0 -1.0
outer loop
vertex 9.08000000000001 115.35 4.48339231664188
vertex 5.24118095489749 117.734074173711 4.48339231664188
vertex 5.50000000000001 117.7 4.48339231664188
endloop
endfacet
facet normal 0.0 0.0 -1.0
outer loop
vertex 9.08000000000001 115.35 4.48339231664188
vertex 5.50000000000001 117.7 4.48339231664188
vertex 5.75881904510254 117.734074173711 4.48339231664188
endloop
endfacet
facet normal 0.0 0.0 -1.0
outer loop
vertex 9.08000000000001 115.35 4.48339231664188
vertex 5.75881904510254 117.734074173711 4.48339231664188
vertex 6.00000000000001 117.833974596215 4.48339231664188
endloop
endfacet
facet normal 0.0 0.0 -1.0
outer loop
vertex 9.08000000000001 115.35 4.48339231664188
vertex 6.00000000000001 117.833974596215 4.48339231664188
vertex 6.20710678118656 117.992893218813 4.48339231664188
endloop
endfacet
facet normal 0.0 0.0 -1.0
outer loop
vertex 9.08000000000001 115.35 4.48339231664188
vertex 6.20710678118656 117.992893218813 4.48339231664188
vertex 6.28929270498656 118.1 4.48339231664188
endloop
endfacet
facet normal 0.0 0.0 -1.0
outer loop
vertex 9.08000000000001 115.35 4.48339231664188
vertex 6.28929270498656 118.1 4.48339231664188
vertex 6.36602540378445 118.2 4.48339231664188
endloop
endfacet
facet normal 0.0 0.0 -1.0
outer loop
vertex 9.08000000000001 115.35 4.48339231664188
vertex 6.36602540378445 118.2 4.48339231664188
vertex 6.46592582628908 118.441180954897 4.48339231664188
endloop
endfacet
facet normal 0.0 0.0 -1.0
outer loop
vertex 9.08000000000001 115.35 4.48339231664188
vertex 6.46592582628908 118.441180954897 4.48339231664188
vertex 6.50000000000001 118.7 4.48339231664188
endloop
endfacet
facet normal 0.0 0.0 -1.0
outer loop
vertex 9.08000000000001 115.35 4.48339231664188
vertex 6.50000000000001 118.7 4.48339231664188
vertex 7.00000000000002 121.298076211353 4.48339231664188
endloop
endfacet
facet normal 0.0 0.0 -1.0
outer loop
vertex 9.08000000000001 115.35 4.48339231664188
vertex 7.00000000000002 121.298076211353 4.48339231664188
vertex 7.62132034355965 120.821320343559 4.48339231664188
endloop
endfacet
facet normal 0.0 0.0 -1.0
outer loop
vertex 9.08000000000001 115.35 4.48339231664188
vertex 7.62132034355965 120.821320343559 4.48339231664188
vertex 8.50000000000002 118.1 4.48339231664188
endloop
endfacet
facet normal 0.0 0.0 -1.0
outer loop
vertex 8.50000000000002 118.1 4.48339231664188
vertex 7.62132034355965 120.821320343559 4.48339231664188
vertex 8.09807621135333 120.2 4.48339231664188
endloop
endfacet
facet normal 0.0 0.0 -1.0
outer loop
vertex 8.50000000000002 118.1 4.48339231664188
vertex 8.09807621135333 120.2 4.48339231664188
vertex 8.39777747886722 119.476457135307 4.48339231664188
endloop
endfacet
facet normal 0.0 0.0 -1.0
outer loop
vertex 8.50000000000002 118.1 4.48339231664188
vertex 8.39777747886722 119.476457135307 4.48339231664188
vertex 8.50000000000001 118.7 4.48339231664188
endloop
endfacet
facet normal 0.0 0.0 -1.0
outer loop
vertex 9.08000000000001 115.35 4.48339231664188
vertex 8.50000000000002 118.1 4.48339231664188
vertex 38.05 118.1 4.48339231664188
endloop
endfacet
facet normal 0.0 0.0 -1.0
outer loop
vertex 9.08000000000001 115.35 4.48339231664188
vertex 38.05 118.1 4.48339231664188
vertex 11.83 113.85 4.48339231664187
endloop
endfacet
facet normal 0.0 0.0 -1.0
outer loop
vertex 9.08000000000001 115.35 4.48339231664188
vertex 11.83 113.85 4.48339231664187
vertex 9.08000000000001 100.1 4.48339231664188
endloop
endfacet
facet normal 0.0 0.0 -1.0
outer loop
vertex 11.83 113.85 4.48339231664187
vertex 38.05 118.1 4.48339231664188
vertex 33.7 116.85 4.48339231664188
endloop
endfacet
facet normal 0.0 0.0 -1.0
outer loop
vertex 11.83 113.85 4.48339231664187
vertex 33.7 116.85 4.48339231664188
vertex 27.3 113.85 4.48339231664187
endloop
endfacet
facet normal 0.0 0.0 -1.0
outer loop
vertex 27.3 113.85 4.48339231664187
vertex 33.7 116.85 4.48339231664188
vertex 30.3 111.89 4.48339231664188
endloop
endfacet
facet normal 0.0 0.0 -1.0
outer loop
vertex 27.3 113.85 4.48339231664187
vertex 30.3 111.89 4.48339231664188
vertex 27.3 101.85 4.48339231664187
endloop
endfacet
facet normal 0.0 0.0 -1.0
outer loop
vertex 33.7 116.85 4.48339231664188
vertex 38.05 118.1 4.48339231664188
vertex 36.7 116.85 4.48339231664188
endloop
endfacet
facet normal 0.0 0.0 -1.0
outer loop
vertex 36.7 116.85 4.48339231664188
vertex 38.05 118.1 4.48339231664188
vertex 36.7 98.8499999999999 4.48339231664188
endloop
endfacet
facet normal 0.0 0.0 -1.0
outer loop
vertex 0.0500000000000167 97.5999999999999 4.48339231664188
vertex 1.55000000000002 100.1 4.48339231664188
vertex 38.05 97.5999999999999 4.48339231664188
endloop
endfacet
facet normal 0.0 0.0 -1.0
outer loop
vertex 1.55000000000002 100.1 4.48339231664188
vertex 0.0500000000000167 97.5999999999999 4.48339231664188
vertex 1.55000000000001 115.35 4.48339231664188
endloop
endfacet
facet normal 0.0 0.0 -1.0
outer loop
vertex 38.05 97.5999999999999 4.48339231664188
vertex 1.55000000000002 100.1 4.48339231664188
vertex 9.08000000000001 100.1 4.48339231664188
endloop
endfacet
facet normal 0.0 0.0 -1.0
outer loop
vertex 38.05 97.5999999999999 4.48339231664188
vertex 9.08000000000001 100.1 4.48339231664188
vertex 11.83 101.85 4.48339231664187
endloop
endfacet
facet normal 0.0 0.0 -1.0
outer loop
vertex 11.83 101.85 4.48339231664187
vertex 9.08000000000001 100.1 4.48339231664188
vertex 11.83 113.85 4.48339231664187
endloop
endfacet
facet normal 0.0 0.0 -1.0
outer loop
vertex 38.05 97.5999999999999 4.48339231664188
vertex 11.83 101.85 4.48339231664187
vertex 33.7 98.8499999999999 4.48339231664188
endloop
endfacet
facet normal 0.0 0.0 -1.0
outer loop
vertex 33.7 98.8499999999999 4.48339231664188
vertex 11.83 101.85 4.48339231664187
vertex 27.3 101.85 4.48339231664187
endloop
endfacet
facet normal 0.0 0.0 -1.0
outer loop
vertex 33.7 98.8499999999999 4.48339231664188
vertex 27.3 101.85 4.48339231664187
vertex 30.3 103.81 4.48339231664188
endloop
endfacet
facet normal 0.0 0.0 -1.0
outer loop
vertex 30.3 103.81 4.48339231664188
vertex 27.3 101.85 4.48339231664187
vertex 30.3 111.89 4.48339231664188
endloop
endfacet
facet normal 0.0 0.0 -1.0
outer loop
vertex 33.7 98.8499999999999 4.48339231664188
vertex 30.3 103.81 4.48339231664188
vertex 33.7 103.81 4.48339231664188
endloop
endfacet
facet normal 0.0 0.0 -1.0
outer loop
vertex 38.05 97.5999999999999 4.48339231664188
vertex 33.7 98.8499999999999 4.48339231664188
vertex 36.7 98.8499999999999 4.48339231664188
endloop
endfacet
facet normal 0.0 0.0 -1.0
outer loop
vertex 38.05 97.5999999999999 4.48339231664188
vertex 36.7 98.8499999999999 4.48339231664188
vertex 38.05 118.1 4.48339231664188
endloop
endfacet
facet normal 0.0 1.0 0.0
outer loop
vertex 0.0500000000000111 118.1 16.9833923166419
vertex 2.50000000000002 118.1 4.48339231664188
vertex 0.0500000000000111 118.1 4.48339231664188
endloop
endfacet
facet normal 0.0 1.0 0.0
outer loop
vertex 2.50000000000002 118.1 4.48339231664188
vertex 0.0500000000000111 118.1 16.9833923166419
vertex 2.50000000000002 118.1 16.9833923166419
endloop
endfacet
facet normal 3.38622176034582e-016 -1.0 0.0
outer loop
vertex 5.50000000000001 119.7 16.9833923166419
vertex 5.24118095489749 119.665925826289 4.48339231664188
vertex 5.50000000000001 119.7 4.48339231664188
endloop
endfacet
facet normal 0.258819045102524 -0.965925826289068 0.0
outer loop
vertex 5.24118095489749 119.665925826289 4.48339231664188
vertex 5.50000000000001 119.7 16.9833923166419
vertex 5.24118095489749 119.665925826289 16.9833923166419
endloop
endfacet
facet normal -0.96592582628907 0.258819045102514 0.0
outer loop
vertex 6.46592582628908 118.441180954897 16.9833923166419
vertex 6.36602540378445 118.2 4.48339231664188
vertex 6.36602540378445 118.2 16.9833923166419
endloop
endfacet
facet normal -0.866025403784449 0.499999999999982 3.12497414504796e-032
outer loop
vertex 6.36602540378445 118.2 4.48339231664188
vertex 6.46592582628908 118.441180954897 16.9833923166419
vertex 6.46592582628908 118.441180954897 4.48339231664188
endloop
endfacet
facet normal -0.258819045102523 -0.965925826289068 0.0
outer loop
vertex 5.75881904510254 119.665925826289 16.9833923166419
vertex 5.50000000000001 119.7 4.48339231664188
vertex 5.75881904510254 119.665925826289 4.48339231664188
endloop
endfacet
facet normal 3.38622176034582e-016 -1.0 0.0
outer loop
vertex 5.50000000000001 119.7 4.48339231664188
vertex 5.75881904510254 119.665925826289 16.9833923166419
vertex 5.50000000000001 119.7 16.9833923166419
endloop
endfacet
facet normal 3.05238290783456e-016 -1.0 0.0
outer loop
vertex 38.05 97.5999999999999 16.9833923166419
vertex 0.0500000000000167 97.5999999999999 4.48339231664188
vertex 38.05 97.5999999999999 4.48339231664188
endloop
endfacet
facet normal 3.05238290783456e-016 -1.0 0.0
outer loop
vertex 0.0500000000000167 97.5999999999999 4.48339231664188
vertex 38.05 97.5999999999999 16.9833923166419
vertex 0.0500000000000167 97.5999999999999 16.9833923166419
endloop
endfacet
facet normal 3.33066907387547e-016 -1.0 0.0
outer loop
vertex 9.08000000000001 115.35 15.2333923166419
vertex 1.55000000000001 115.35 4.48339231664188
vertex 9.08000000000001 115.35 4.48339231664188
endloop
endfacet
facet normal 3.33066907387547e-016 -1.0 0.0
outer loop
vertex 1.55000000000001 115.35 4.48339231664188
vertex 9.08000000000001 115.35 15.2333923166419
vertex 1.55000000000001 115.35 15.2333923166419
endloop
endfacet
facet normal -1.0 -3.33066907387547e-016 0.0
outer loop
vertex 0.0500000000000111 118.1 16.9833923166419
vertex 0.0500000000000111 117.1 15.2333923166419
vertex 0.0500000000000111 117.1 16.9833923166419
endloop
endfacet
facet normal -1.0 -3.33066907387547e-016 0.0
outer loop
vertex 0.0500000000000167 98.5999999999999 16.9833923166419
vertex 0.0500000000000167 97.5999999999999 4.48339231664188
vertex 0.0500000000000167 97.5999999999999 16.9833923166419
endloop
endfacet
facet normal -1.0 -3.33066907387547e-016 0.0
outer loop
vertex 0.0500000000000167 97.5999999999999 4.48339231664188
vertex 0.0500000000000167 98.5999999999999 16.9833923166419
vertex 0.0500000000000167 98.5999999999999 15.2333923166419
endloop
endfacet
facet normal -1.0 -3.33066907387547e-016 0.0
outer loop
vertex 0.0500000000000167 97.5999999999999 4.48339231664188
vertex 0.0500000000000167 98.5999999999999 15.2333923166419
vertex 0.0500000000000111 118.1 4.48339231664188
endloop
endfacet
facet normal -1.0 -3.33066907387547e-016 0.0
outer loop
vertex 0.0500000000000111 118.1 4.48339231664188
vertex 0.0500000000000167 98.5999999999999 15.2333923166419
vertex 0.0500000000000111 117.1 15.2333923166419
endloop
endfacet
facet normal -1.0 -3.33066907387547e-016 0.0
outer loop
vertex 0.0500000000000111 118.1 4.48339231664188
vertex 0.0500000000000111 117.1 15.2333923166419
vertex 0.0500000000000111 118.1 16.9833923166419
endloop
endfacet
facet normal -0.5 0.866025403784439 0.0
outer loop
vertex 4.00000000000002 121.298076211353 16.9833923166419
vertex 4.72354286469245 121.597777478867 4.48339231664188
vertex 4.00000000000002 121.298076211353 4.48339231664188
endloop
endfacet
facet normal -0.258819045102523 0.965925826289068 0.0
outer loop
vertex 4.72354286469245 121.597777478867 4.48339231664188
vertex 4.00000000000002 121.298076211353 16.9833923166419
vertex 4.72354286469245 121.597777478867 16.9833923166419
endloop
endfacet
facet normal 1.0 3.33066907387547e-016 0.0
outer loop
vertex 33.7 116.85 4.48339231664188
vertex 33.7 111.89 15.2333923166419
vertex 33.7 111.89 4.48339231664188
endloop
endfacet
facet normal 1.0 3.33066907387547e-016 0.0
outer loop
vertex 33.7 111.89 15.2333923166419
vertex 33.7 116.85 4.48339231664188
vertex 33.7 116.85 15.2333923166419
endloop
endfacet
facet normal 0.793353340291273 0.608761429008672 9.69221049866897e-020
outer loop
vertex 4.71070729501346 118.1 4.48339231664188
vertex 4.79289321881346 117.992893218813 16.9833923166419
vertex 4.79289321881346 117.992893218813 4.48339231664188
endloop
endfacet
facet normal 0.707106781186566 0.707106781186529 4.88792210049829e-020
outer loop
vertex 4.79289321881346 117.992893218813 16.9833923166419
vertex 4.71070729501346 118.1 4.48339231664188
vertex 4.71070729501346 118.1 16.9833923166419
endloop
endfacet
facet normal 0.793353340291273 0.608761429008672 9.69221049866897e-020
outer loop
vertex 4.71070729501346 118.1 16.9833923166419
vertex 4.71070729501346 118.1 4.48339231664188
vertex 4.63397459621557 118.2 4.48339231664188
endloop
endfacet
facet normal 0.793353340291273 0.608761429008672 9.69221049866897e-020
outer loop
vertex 4.71070729501346 118.1 16.9833923166419
vertex 4.63397459621557 118.2 4.48339231664188
vertex 4.63397459621557 118.2 16.9833923166419
endloop
endfacet
facet normal 0.965925826289068 0.258819045102521 0.0
outer loop
vertex 8.39777747886722 119.476457135307 4.48339231664188
vertex 8.50000000000001 118.7 16.9833923166419
vertex 8.50000000000001 118.7 4.48339231664188
endloop
endfacet
facet normal 0.99144486137381 0.130526192220052 0.0
outer loop
vertex 8.50000000000001 118.7 16.9833923166419
vertex 8.39777747886722 119.476457135307 4.48339231664188
vertex 8.39777747886722 119.476457135307 16.9833923166419
endloop
endfacet
facet normal 0.707106781186545 -0.70710678118655 0.0
outer loop
vertex 4.79289321881346 119.407106781186 4.48339231664188
vertex 4.63397459621557 119.2 16.9833923166419
vertex 4.63397459621557 119.2 4.48339231664188
endloop
endfacet
facet normal 0.866025403784442 -0.499999999999995 0.0
outer loop
vertex 4.63397459621557 119.2 16.9833923166419
vertex 4.79289321881346 119.407106781186 4.48339231664188
vertex 4.79289321881346 119.407106781186 16.9833923166419
endloop
endfacet
facet normal 0.866025403784442 -0.499999999999995 0.0
outer loop
vertex 4.63397459621557 119.2 4.48339231664188
vertex 4.53407417371095 118.958819045102 16.9833923166419
vertex 4.53407417371095 118.958819045102 4.48339231664188
endloop
endfacet
facet normal 0.96592582628907 -0.258819045102516 0.0
outer loop
vertex 4.53407417371095 118.958819045102 16.9833923166419
vertex 4.63397459621557 119.2 4.48339231664188
vertex 4.63397459621557 119.2 16.9833923166419
endloop
endfacet
facet normal -0.707106781186547 -0.707106781186548 0.0
outer loop
vertex 6.20710678118656 119.407106781186 16.9833923166419
vertex 6.36602540378445 119.2 4.48339231664188
vertex 6.36602540378445 119.2 16.9833923166419
endloop
endfacet
facet normal -0.866025403784438 -0.500000000000001 0.0
outer loop
vertex 6.36602540378445 119.2 4.48339231664188
vertex 6.20710678118656 119.407106781186 16.9833923166419
vertex 6.20710678118656 119.407106781186 4.48339231664188
endloop
endfacet
facet normal 1.27305573490351e-015 -1.0 0.0
outer loop
vertex 36.7 116.85 15.2333923166419
vertex 33.7 116.85 4.48339231664188
vertex 36.7 116.85 4.48339231664188
endloop
endfacet
facet normal 1.27305573490351e-015 -1.0 0.0
outer loop
vertex 33.7 116.85 4.48339231664188
vertex 36.7 116.85 15.2333923166419
vertex 33.7 116.85 15.2333923166419
endloop
endfacet
facet normal 1.0 3.33066907387547e-016 0.0
outer loop
vertex 30.3 111.89 4.48339231664188
vertex 30.3 103.81 15.2333923166419
vertex 30.3 103.81 4.48339231664188
endloop
endfacet
facet normal 1.0 3.33066907387547e-016 0.0
outer loop
vertex 30.3 103.81 15.2333923166419
vertex 30.3 111.89 4.48339231664188
vertex 30.3 111.89 15.2333923166419
endloop
endfacet
facet normal 0.258819045102524 -0.965925826289068 0.0
outer loop
vertex 5.24118095489749 119.665925826289 16.9833923166419
vertex 5.00000000000001 119.566025403784 4.48339231664188
vertex 5.24118095489749 119.665925826289 4.48339231664188
endloop
endfacet
facet normal 0.499999999999999 -0.86602540378444 0.0
outer loop
vertex 5.00000000000001 119.566025403784 4.48339231664188
vertex 5.24118095489749 119.665925826289 16.9833923166419
vertex 5.00000000000001 119.566025403784 16.9833923166419
endloop
endfacet
facet normal -1.0 -3.33066907387547e-016 0.0
outer loop
vertex 9.08000000000001 115.35 15.2333923166419
vertex 9.08000000000001 100.1 4.48339231664188
vertex 9.08000000000001 100.1 15.2333923166419
endloop
endfacet
facet normal -1.0 -3.33066907387547e-016 0.0
outer loop
vertex 9.08000000000001 100.1 4.48339231664188
vertex 9.08000000000001 115.35 15.2333923166419
vertex 9.08000000000001 115.35 4.48339231664188
endloop
endfacet
facet normal -0.258819045102524 0.965925826289068 2.35431941785372e-019
outer loop
vertex 5.75881904510254 117.734074173711 16.9833923166419
vertex 6.00000000000001 117.833974596215 4.48339231664188
vertex 5.75881904510254 117.734074173711 4.48339231664188
endloop
endfacet
facet normal -0.499999999999999 0.86602540378444 1.6259162326373e-019
outer loop
vertex 6.00000000000001 117.833974596215 4.48339231664188
vertex 5.75881904510254 117.734074173711 16.9833923166419
vertex 6.00000000000001 117.833974596215 16.9833923166419
endloop
endfacet
facet normal 0.0 1.0 0.0
outer loop
vertex 8.50000000000002 118.1 16.9833923166419
vertex 38.05 118.1 4.48339231664188
vertex 8.50000000000002 118.1 4.48339231664188
endloop
endfacet
facet normal 0.0 1.0 0.0
outer loop
vertex 38.05 118.1 4.48339231664188
vertex 8.50000000000002 118.1 16.9833923166419
vertex 38.05 118.1 16.9833923166419
endloop
endfacet
facet normal 0.0 0.0 1.0
outer loop
vertex 33.7 111.89 15.2333923166419
vertex 33.7 116.85 15.2333923166419
vertex 30.3 111.89 15.2333923166419
endloop
endfacet
facet normal 0.0 0.0 1.0
outer loop
vertex 0.0500000000000167 98.5999999999999 15.2333923166419
vertex 1.55000000000002 100.1 15.2333923166419
vertex 1.55000000000001 115.35 15.2333923166419
endloop
endfacet
facet normal 0.0 0.0 1.0
outer loop
vertex 1.55000000000002 100.1 15.2333923166419
vertex 0.0500000000000167 98.5999999999999 15.2333923166419
vertex 37.05 98.5999999999999 15.2333923166419
endloop
endfacet
facet normal 0.0 0.0 1.0
outer loop
vertex 1.55000000000002 100.1 15.2333923166419
vertex 37.05 98.5999999999999 15.2333923166419
vertex 9.08000000000001 100.1 15.2333923166419
endloop
endfacet
facet normal 0.0 0.0 1.0
outer loop
vertex 9.08000000000001 100.1 15.2333923166419
vertex 37.05 98.5999999999999 15.2333923166419
vertex 33.7 98.8499999999999 15.2333923166419
endloop
endfacet
facet normal 0.0 0.0 1.0
outer loop
vertex 9.08000000000001 100.1 15.2333923166419
vertex 33.7 98.8499999999999 15.2333923166419
vertex 11.83 101.85 15.2333923166419
endloop
endfacet
facet normal 0.0 0.0 1.0
outer loop
vertex 9.08000000000001 100.1 15.2333923166419
vertex 11.83 101.85 15.2333923166419
vertex 11.83 113.85 15.2333923166419
endloop
endfacet
facet normal 0.0 0.0 1.0
outer loop
vertex 11.83 101.85 15.2333923166419
vertex 33.7 98.8499999999999 15.2333923166419
vertex 27.3 101.85 15.2333923166419
endloop
endfacet
facet normal 0.0 0.0 1.0
outer loop
vertex 27.3 101.85 15.2333923166419
vertex 33.7 98.8499999999999 15.2333923166419
vertex 30.3 103.81 15.2333923166419
endloop
endfacet
facet normal 0.0 0.0 1.0
outer loop
vertex 30.3 103.81 15.2333923166419
vertex 33.7 98.8499999999999 15.2333923166419
vertex 33.7 103.81 15.2333923166419
endloop
endfacet
facet normal 0.0 0.0 1.0
outer loop
vertex 33.7 98.8499999999999 15.2333923166419
vertex 37.05 98.5999999999999 15.2333923166419
vertex 36.7 98.8499999999999 15.2333923166419
endloop
endfacet
facet normal 0.0 0.0 1.0
outer loop
vertex 36.7 98.8499999999999 15.2333923166419
vertex 37.05 98.5999999999999 15.2333923166419
vertex 37.05 117.1 15.2333923166419
endloop
endfacet
facet normal 0.0 0.0 1.0
outer loop
vertex 0.0500000000000111 117.1 15.2333923166419
vertex 1.55000000000001 115.35 15.2333923166419
vertex 37.05 117.1 15.2333923166419
endloop
endfacet
facet normal 0.0 0.0 1.0
outer loop
vertex 1.55000000000001 115.35 15.2333923166419
vertex 0.0500000000000111 117.1 15.2333923166419
vertex 0.0500000000000167 98.5999999999999 15.2333923166419
endloop
endfacet
facet normal 0.0 0.0 1.0
outer loop
vertex 37.05 117.1 15.2333923166419
vertex 1.55000000000001 115.35 15.2333923166419
vertex 9.08000000000001 115.35 15.2333923166419
endloop
endfacet
facet normal 0.0 0.0 1.0
outer loop
vertex 37.05 117.1 15.2333923166419
vertex 9.08000000000001 115.35 15.2333923166419
vertex 33.7 116.85 15.2333923166419
endloop
endfacet
facet normal 0.0 0.0 1.0
outer loop
vertex 33.7 116.85 15.2333923166419
vertex 9.08000000000001 115.35 15.2333923166419
vertex 11.83 113.85 15.2333923166419
endloop
endfacet
facet normal 0.0 0.0 1.0
outer loop
vertex 11.83 113.85 15.2333923166419
vertex 9.08000000000001 115.35 15.2333923166419
vertex 9.08000000000001 100.1 15.2333923166419
endloop
endfacet
facet normal 0.0 0.0 1.0
outer loop
vertex 33.7 116.85 15.2333923166419
vertex 11.83 113.85 15.2333923166419
vertex 27.3 113.85 15.2333923166419
endloop
endfacet
facet normal 0.0 0.0 1.0
outer loop
vertex 33.7 116.85 15.2333923166419
vertex 27.3 113.85 15.2333923166419
vertex 30.3 111.89 15.2333923166419
endloop
endfacet
facet normal 0.0 0.0 1.0
outer loop
vertex 30.3 111.89 15.2333923166419
vertex 27.3 113.85 15.2333923166419
vertex 27.3 101.85 15.2333923166419
endloop
endfacet
facet normal 0.0 0.0 1.0
outer loop
vertex 30.3 111.89 15.2333923166419
vertex 27.3 101.85 15.2333923166419
vertex 30.3 103.81 15.2333923166419
endloop
endfacet
facet normal 0.0 0.0 1.0
outer loop
vertex 37.05 117.1 15.2333923166419
vertex 33.7 116.85 15.2333923166419
vertex 36.7 116.85 15.2333923166419
endloop
endfacet
facet normal 0.0 0.0 1.0
outer loop
vertex 37.05 117.1 15.2333923166419
vertex 36.7 116.85 15.2333923166419
vertex 36.7 98.8499999999999 15.2333923166419
endloop
endfacet
facet normal -3.33066907387547e-016 1.0 0.0
outer loop
vertex 33.7 98.8499999999999 15.2333923166419
vertex 36.7 98.8499999999999 4.48339231664188
vertex 33.7 98.8499999999999 4.48339231664188
endloop
endfacet
facet normal -3.33066907387547e-016 1.0 0.0
outer loop
vertex 36.7 98.8499999999999 4.48339231664188
vertex 33.7 98.8499999999999 15.2333923166419
vertex 36.7 98.8499999999999 15.2333923166419
endloop
endfacet
facet normal 1.0 3.33066907387547e-016 0.0
outer loop
vertex 33.7 103.81 4.48339231664188
vertex 33.7 98.8499999999999 15.2333923166419
vertex 33.7 98.8499999999999 4.48339231664188
endloop
endfacet
facet normal 1.0 3.33066907387547e-016 0.0
outer loop
vertex 33.7 98.8499999999999 15.2333923166419
vertex 33.7 103.81 4.48339231664188
vertex 33.7 103.81 15.2333923166419
endloop
endfacet
facet normal -3.33066907387547e-016 1.0 0.0
outer loop
vertex 0.0500000000000167 98.5999999999999 16.9833923166419
vertex 37.05 98.5999999999999 15.2333923166419
vertex 0.0500000000000167 98.5999999999999 15.2333923166419
endloop
endfacet
facet normal -3.33066907387547e-016 1.0 0.0
outer loop
vertex 37.05 98.5999999999999 15.2333923166419
vertex 0.0500000000000167 98.5999999999999 16.9833923166419
vertex 37.05 98.5999999999999 16.9833923166419
endloop
endfacet
facet normal 0.707106781186566 0.707106781186529 4.88792210049829e-020
outer loop
vertex 4.79289321881346 117.992893218813 16.9833923166419
vertex 5.00000000000001 117.833974596215 4.48339231664188
vertex 4.79289321881346 117.992893218813 4.48339231664188
endloop
endfacet
facet normal 0.499999999999998 0.86602540378444 5.84103119163028e-020
outer loop
vertex 5.00000000000001 117.833974596215 4.48339231664188
vertex 4.79289321881346 117.992893218813 16.9833923166419
vertex 5.00000000000001 117.833974596215 16.9833923166419
endloop
endfacet
facet normal -2.94066626556348e-016 1.0 2.51265481532468e-020
outer loop
vertex 5.50000000000001 117.7 16.9833923166419
vertex 5.75881904510254 117.734074173711 4.48339231664188
vertex 5.50000000000001 117.7 4.48339231664188
endloop
endfacet
facet normal -0.258819045102524 0.965925826289068 2.35431941785372e-019
outer loop
vertex 5.75881904510254 117.734074173711 4.48339231664188
vertex 5.50000000000001 117.7 16.9833923166419
vertex 5.75881904510254 117.734074173711 16.9833923166419
endloop
endfacet
facet normal -1.0 -3.33066907387547e-016 0.0
outer loop
vertex 37.05 117.1 16.9833923166419
vertex 37.05 98.5999999999999 15.2333923166419
vertex 37.05 98.5999999999999 16.9833923166419
endloop
endfacet
facet normal -1.0 -3.33066907387547e-016 0.0
outer loop
vertex 37.05 98.5999999999999 15.2333923166419
vertex 37.05 117.1 16.9833923166419
vertex 37.05 117.1 15.2333923166419
endloop
endfacet
facet normal -1.0 -3.33066907387547e-016 0.0
outer loop
vertex 36.7 116.85 15.2333923166419
vertex 36.7 98.8499999999999 4.48339231664188
vertex 36.7 98.8499999999999 15.2333923166419
endloop
endfacet
facet normal -1.0 -3.33066907387547e-016 0.0
outer loop
vertex 36.7 98.8499999999999 4.48339231664188
vertex 36.7 116.85 15.2333923166419
vertex 36.7 116.85 4.48339231664188
endloop
endfacet
facet normal 3.33066907387547e-016 -1.0 0.0
outer loop
vertex 37.05 117.1 16.9833923166419
vertex 0.0500000000000111 117.1 15.2333923166419
vertex 37.05 117.1 15.2333923166419
endloop
endfacet
facet normal 3.33066907387547e-016 -1.0 0.0
outer loop
vertex 0.0500000000000111 117.1 15.2333923166419
vertex 37.05 117.1 16.9833923166419
vertex 0.0500000000000111 117.1 16.9833923166419
endloop
endfacet
endsolid TEC-1G_v1
