solid TEC-1G_v1
facet normal 1.0 -2.32206512075107e-016 -4.65034327767191e-016
outer loop
vertex 248.9 135.0 -4.99999999999992
vertex 248.9 147.0 -9.99999999999992
vertex 248.9 147.0 -4.99999999999992
endloop
endfacet
facet normal 1.0 -2.32206512075107e-016 -4.65034327767191e-016
outer loop
vertex 248.9 147.0 -9.99999999999992
vertex 248.9 135.0 -4.99999999999992
vertex 248.9 140.0 -9.99999999999992
endloop
endfacet
facet normal 1.0 -2.32206512075107e-016 -4.65034327767191e-016
outer loop
vertex 248.9 140.0 -9.99999999999992
vertex 248.9 135.0 -4.99999999999992
vertex 248.9 140.0 -52.682777641799
endloop
endfacet
facet normal 1.0 -2.32206512075107e-016 -4.65034327767191e-016
outer loop
vertex 248.9 26.0000000000001 -4.99999999999992
vertex 248.9 21.0000000000001 -9.99999999999992
vertex 248.9 26.0000000000001 -14.4467527970785
endloop
endfacet
facet normal 1.0 -2.32206512075107e-016 -4.65034327767191e-016
outer loop
vertex 248.9 21.0000000000001 -9.99999999999992
vertex 248.9 26.0000000000001 -4.99999999999992
vertex 248.9 14.0000000000001 -4.99999999999992
endloop
endfacet
facet normal 1.0 -2.32206512075107e-016 -4.65034327767191e-016
outer loop
vertex 248.9 21.0000000000001 -9.99999999999992
vertex 248.9 14.0000000000001 -4.99999999999992
vertex 248.9 14.0000000000001 -9.99999999999992
endloop
endfacet
facet normal 1.0 -2.32206512075107e-016 -4.65034327767191e-016
outer loop
vertex 248.9 150.353192020973 -57.4739696262136
vertex 248.9 150.274189397436 -58.7656511032693
vertex 248.9 150.398717255475 -58.1250108110937
endloop
endfacet
facet normal 1.0 -2.32206512075107e-016 -4.65034327767191e-016
outer loop
vertex 248.9 150.274189397436 -58.7656511032693
vertex 248.9 150.353192020973 -57.4739696262136
vertex 248.9 150.140716163426 -56.856894929482
endloop
endfacet
facet normal 1.0 -2.32206512075107e-016 -4.65034327767191e-016
outer loop
vertex 248.9 150.274189397436 -58.7656511032693
vertex 248.9 150.140716163426 -56.856894929482
vertex 248.9 149.988094814588 -59.3522319255367
endloop
endfacet
facet normal 1.0 -2.32206512075107e-016 -4.65034327767191e-016
outer loop
vertex 248.9 149.988094814588 -59.3522319255367
vertex 248.9 150.140716163426 -56.856894929482
vertex 248.9 149.775769561393 -56.3158393417172
endloop
endfacet
facet normal 1.0 -2.32206512075107e-016 -4.65034327767191e-016
outer loop
vertex 248.9 149.988094814588 -59.3522319255367
vertex 248.9 149.775769561393 -56.3158393417172
vertex 248.9 149.55993037996 -59.8447787642291
endloop
endfacet
facet normal 1.0 -2.32206512075107e-016 -4.65034327767191e-016
outer loop
vertex 248.9 149.55993037996 -59.8447787642291
vertex 248.9 149.775769561393 -56.3158393417172
vertex 248.9 149.283222722701 -55.8876749070886
endloop
endfacet
facet normal 1.0 -2.32206512075107e-016 -4.65034327767191e-016
outer loop
vertex 248.9 149.55993037996 -59.8447787642291
vertex 248.9 149.283222722701 -55.8876749070886
vertex 248.9 149.018874792195 -60.2097253662616
endloop
endfacet
facet normal 1.0 -2.32206512075107e-016 -4.65034327767191e-016
outer loop
vertex 248.9 149.018874792195 -60.2097253662616
vertex 248.9 149.283222722701 -55.8876749070886
vertex 248.9 148.696641900433 -55.601580324241
endloop
endfacet
facet normal 1.0 -2.32206512075107e-016 -4.65034327767191e-016
outer loop
vertex 248.9 149.018874792195 -60.2097253662616
vertex 248.9 148.696641900433 -55.601580324241
vertex 248.9 148.401800095463 -60.4222012238086
endloop
endfacet
facet normal 1.0 -2.32206512075107e-016 -4.65034327767191e-016
outer loop
vertex 248.9 148.401800095463 -60.4222012238086
vertex 248.9 148.696641900433 -55.601580324241
vertex 248.9 140.0 -52.682777641799
endloop
endfacet
facet normal 1.0 -2.32206512075107e-016 -4.65034327767191e-016
outer loop
vertex 248.9 148.401800095463 -60.4222012238086
vertex 248.9 140.0 -52.682777641799
vertex 248.9 147.750758910583 -60.4677264583112
endloop
endfacet
facet normal 1.0 -2.32206512075107e-016 -4.65034327767191e-016
outer loop
vertex 248.9 147.750758910583 -60.4677264583112
vertex 248.9 140.0 -52.682777641799
vertex 248.9 147.110118618408 -60.343198600272
endloop
endfacet
facet normal 1.0 -2.32206512075107e-016 -4.65034327767191e-016
outer loop
vertex 248.9 147.110118618408 -60.343198600272
vertex 248.9 140.0 -52.682777641799
vertex 248.9 21.0000000000001 -18.0434782608695
endloop
endfacet
facet normal 1.0 -2.32206512075107e-016 -4.65034327767191e-016
outer loop
vertex 248.9 21.0000000000001 -18.0434782608695
vertex 248.9 140.0 -52.682777641799
vertex 248.9 135.0 -51.0057590082586
endloop
endfacet
facet normal 1.0 -2.32206512075107e-016 -4.65034327767191e-016
outer loop
vertex 248.9 135.0 -51.0057590082586
vertex 248.9 140.0 -52.682777641799
vertex 248.9 135.0 -4.99999999999992
endloop
endfacet
facet normal 1.0 -2.32206512075107e-016 -4.65034327767191e-016
outer loop
vertex 248.9 21.0000000000001 -18.0434782608695
vertex 248.9 135.0 -51.0057590082586
vertex 248.9 26.0000000000001 -14.4467527970785
endloop
endfacet
facet normal 1.0 -2.32206512075107e-016 -4.65034327767191e-016
outer loop
vertex 248.9 21.0000000000001 -18.0434782608695
vertex 248.9 26.0000000000001 -14.4467527970785
vertex 248.9 21.0000000000001 -9.99999999999992
endloop
endfacet
facet normal 5.4180336961371e-016 0.317993850215437 0.948092775642322
outer loop
vertex 248.9 135.0 -51.0057590082586
vertex 238.9 26.0000000000001 -14.4467527970785
vertex 248.9 26.0000000000001 -14.4467527970785
endloop
endfacet
facet normal 5.4180336961371e-016 0.317993850215437 0.948092775642322
outer loop
vertex 238.9 26.0000000000001 -14.4467527970785
vertex 248.9 135.0 -51.0057590082586
vertex 238.9 135.0 -51.0057590082586
endloop
endfacet
facet normal -2.70782561014709e-016 -1.0 4.43151635802606e-032
outer loop
vertex 248.9 135.0 -4.99999999999992
vertex 238.9 135.0 -51.0057590082586
vertex 248.9 135.0 -51.0057590082586
endloop
endfacet
facet normal -2.70782561014709e-016 -1.0 4.43151635802606e-032
outer loop
vertex 238.9 135.0 -51.0057590082586
vertex 248.9 135.0 -4.99999999999992
vertex 238.9 135.0 -4.99999999999992
endloop
endfacet
facet normal 7.69081767967609e-017 7.49612724684943e-017 1.0
outer loop
vertex 246.4 151.330127018922 -4.99999999999992
vertex 245.831851652578 147.517638090205 -4.99999999999992
vertex 245.9 147.0 -4.99999999999992
endloop
endfacet
facet normal 7.69081767967609e-017 7.49612724684943e-017 1.0
outer loop
vertex 245.831851652578 147.517638090205 -4.99999999999992
vertex 246.4 151.330127018922 -4.99999999999992
vertex 245.194095225512 151.829629131445 -4.99999999999992
endloop
endfacet
facet normal 7.69081767967609e-017 7.49612724684943e-017 1.0
outer loop
vertex 245.831851652578 147.517638090205 -4.99999999999992
vertex 245.194095225512 151.829629131445 -4.99999999999992
vertex 245.632050807568 148.0 -4.99999999999992
endloop
endfacet
facet normal 7.69081767967609e-017 7.49612724684943e-017 1.0
outer loop
vertex 245.632050807568 148.0 -4.99999999999992
vertex 245.194095225512 151.829629131445 -4.99999999999992
vertex 245.314213562373 148.414213562373 -4.99999999999992
endloop
endfacet
facet normal 7.69081767967609e-017 7.49612724684943e-017 1.0
outer loop
vertex 245.314213562373 148.414213562373 -4.99999999999992
vertex 245.194095225512 151.829629131445 -4.99999999999992
vertex 244.9 148.732050807569 -4.99999999999992
endloop
endfacet
facet normal 7.69081767967609e-017 7.49612724684943e-017 1.0
outer loop
vertex 244.9 148.732050807569 -4.99999999999992
vertex 245.194095225512 151.829629131445 -4.99999999999992
vertex 243.9 152.0 -4.99999999999992
endloop
endfacet
facet normal 7.69081767967609e-017 7.49612724684943e-017 1.0
outer loop
vertex 244.9 148.732050807569 -4.99999999999992
vertex 243.9 152.0 -4.99999999999992
vertex 244.417638090205 148.931851652578 -4.99999999999992
endloop
endfacet
facet normal 7.69081767967609e-017 7.49612724684943e-017 1.0
outer loop
vertex 244.417638090205 148.931851652578 -4.99999999999992
vertex 243.9 152.0 -4.99999999999992
vertex 243.9 149.0 -4.99999999999992
endloop
endfacet
facet normal 7.69081767967609e-017 7.49612724684943e-017 1.0
outer loop
vertex 243.9 149.0 -4.99999999999992
vertex 243.9 152.0 -4.99999999999992
vertex 242.605904774487 151.829629131445 -4.99999999999992
endloop
endfacet
facet normal 7.69081767967609e-017 7.49612724684943e-017 1.0
outer loop
vertex 243.9 149.0 -4.99999999999992
vertex 242.605904774487 151.829629131445 -4.99999999999992
vertex 243.382361909795 148.931851652578 -4.99999999999992
endloop
endfacet
facet normal 7.69081767967609e-017 7.49612724684943e-017 1.0
outer loop
vertex 243.382361909795 148.931851652578 -4.99999999999992
vertex 242.605904774487 151.829629131445 -4.99999999999992
vertex 242.9 148.732050807569 -4.99999999999992
endloop
endfacet
facet normal 7.69081767967609e-017 7.49612724684943e-017 1.0
outer loop
vertex 242.9 148.732050807569 -4.99999999999992
vertex 242.605904774487 151.829629131445 -4.99999999999992
vertex 242.485786437626 148.414213562373 -4.99999999999992
endloop
endfacet
facet normal 7.69081767967609e-017 7.49612724684943e-017 1.0
outer loop
vertex 242.485786437626 148.414213562373 -4.99999999999992
vertex 242.605904774487 151.829629131445 -4.99999999999992
vertex 241.4 151.330127018922 -4.99999999999992
endloop
endfacet
facet normal 7.69081767967609e-017 7.49612724684943e-017 1.0
outer loop
vertex 242.485786437626 148.414213562373 -4.99999999999992
vertex 241.4 151.330127018922 -4.99999999999992
vertex 242.167949192431 148.0 -4.99999999999992
endloop
endfacet
facet normal 7.69081767967609e-017 7.49612724684943e-017 1.0
outer loop
vertex 242.167949192431 148.0 -4.99999999999992
vertex 241.4 151.330127018922 -4.99999999999992
vertex 241.968148347421 147.517638090205 -4.99999999999992
endloop
endfacet
facet normal 7.69081767967609e-017 7.49612724684943e-017 1.0
outer loop
vertex 241.968148347421 147.517638090205 -4.99999999999992
vertex 241.4 151.330127018922 -4.99999999999992
vertex 241.9 147.0 -4.99999999999992
endloop
endfacet
facet normal 7.69081767967609e-017 7.49612724684943e-017 1.0
outer loop
vertex 248.729629131445 148.294095225513 -4.99999999999992
vertex 248.9 135.0 -4.99999999999992
vertex 248.9 147.0 -4.99999999999992
endloop
endfacet
facet normal 7.69081767967609e-017 7.49612724684943e-017 1.0
outer loop
vertex 248.9 135.0 -4.99999999999992
vertex 248.729629131445 148.294095225513 -4.99999999999992
vertex 238.9 135.0 -4.99999999999992
endloop
endfacet
facet normal 7.69081767967609e-017 7.49612724684943e-017 1.0
outer loop
vertex 238.9 135.0 -4.99999999999992
vertex 248.729629131445 148.294095225513 -4.99999999999992
vertex 248.230127018922 149.5 -4.99999999999992
endloop
endfacet
facet normal 7.69081767967609e-017 7.49612724684943e-017 1.0
outer loop
vertex 238.9 135.0 -4.99999999999992
vertex 248.230127018922 149.5 -4.99999999999992
vertex 245.632050807568 146.0 -4.99999999999992
endloop
endfacet
facet normal 7.69081767967609e-017 7.49612724684943e-017 1.0
outer loop
vertex 245.632050807568 146.0 -4.99999999999992
vertex 248.230127018922 149.5 -4.99999999999992
vertex 245.831851652578 146.482361909795 -4.99999999999992
endloop
endfacet
facet normal 7.69081767967609e-017 7.49612724684943e-017 1.0
outer loop
vertex 245.831851652578 146.482361909795 -4.99999999999992
vertex 248.230127018922 149.5 -4.99999999999992
vertex 247.435533905932 150.535533905933 -4.99999999999992
endloop
endfacet
facet normal 7.69081767967609e-017 7.49612724684943e-017 1.0
outer loop
vertex 245.831851652578 146.482361909795 -4.99999999999992
vertex 247.435533905932 150.535533905933 -4.99999999999992
vertex 245.9 147.0 -4.99999999999992
endloop
endfacet
facet normal 7.69081767967609e-017 7.49612724684943e-017 1.0
outer loop
vertex 245.9 147.0 -4.99999999999992
vertex 247.435533905932 150.535533905933 -4.99999999999992
vertex 246.4 151.330127018922 -4.99999999999992
endloop
endfacet
facet normal 7.69081767967609e-017 7.49612724684943e-017 1.0
outer loop
vertex 238.9 135.0 -4.99999999999992
vertex 245.632050807568 146.0 -4.99999999999992
vertex 245.314213562373 145.585786437627 -4.99999999999992
endloop
endfacet
facet normal 7.69081767967609e-017 7.49612724684943e-017 1.0
outer loop
vertex 238.9 135.0 -4.99999999999992
vertex 245.314213562373 145.585786437627 -4.99999999999992
vertex 244.9 145.267949192431 -4.99999999999992
endloop
endfacet
facet normal 7.69081767967609e-017 7.49612724684943e-017 1.0
outer loop
vertex 238.9 135.0 -4.99999999999992
vertex 244.9 145.267949192431 -4.99999999999992
vertex 244.417638090205 145.068148347422 -4.99999999999992
endloop
endfacet
facet normal 7.69081767967609e-017 7.49612724684943e-017 1.0
outer loop
vertex 238.9 135.0 -4.99999999999992
vertex 244.417638090205 145.068148347422 -4.99999999999992
vertex 243.9 145.0 -4.99999999999992
endloop
endfacet
facet normal 7.69081767967609e-017 7.49612724684943e-017 1.0
outer loop
vertex 238.9 135.0 -4.99999999999992
vertex 243.9 145.0 -4.99999999999992
vertex 243.382361909795 145.068148347422 -4.99999999999992
endloop
endfacet
facet normal 7.69081767967609e-017 7.49612724684943e-017 1.0
outer loop
vertex 238.9 135.0 -4.99999999999992
vertex 243.382361909795 145.068148347422 -4.99999999999992
vertex 242.9 145.267949192431 -4.99999999999992
endloop
endfacet
facet normal 7.69081767967609e-017 7.49612724684943e-017 1.0
outer loop
vertex 238.9 135.0 -4.99999999999992
vertex 242.9 145.267949192431 -4.99999999999992
vertex 242.485786437626 145.585786437627 -4.99999999999992
endloop
endfacet
facet normal 7.69081767967609e-017 7.49612724684943e-017 1.0
outer loop
vertex 238.9 135.0 -4.99999999999992
vertex 242.485786437626 145.585786437627 -4.99999999999992
vertex 242.167949192431 146.0 -4.99999999999992
endloop
endfacet
facet normal 7.69081767967609e-017 7.49612724684943e-017 1.0
outer loop
vertex 238.9 135.0 -4.99999999999992
vertex 242.167949192431 146.0 -4.99999999999992
vertex 241.968148347421 146.482361909795 -4.99999999999992
endloop
endfacet
facet normal 7.69081767967609e-017 7.49612724684943e-017 1.0
outer loop
vertex 238.9 135.0 -4.99999999999992
vertex 241.968148347421 146.482361909795 -4.99999999999992
vertex 241.9 147.0 -4.99999999999992
endloop
endfacet
facet normal 7.69081767967609e-017 7.49612724684943e-017 1.0
outer loop
vertex 238.9 135.0 -4.99999999999992
vertex 241.9 147.0 -4.99999999999992
vertex 241.4 151.330127018922 -4.99999999999992
endloop
endfacet
facet normal 7.69081767967609e-017 7.49612724684943e-017 1.0
outer loop
vertex 238.9 135.0 -4.99999999999992
vertex 241.4 151.330127018922 -4.99999999999992
vertex 240.364466094067 150.535533905933 -4.99999999999992
endloop
endfacet
facet normal 7.69081767967609e-017 7.49612724684943e-017 1.0
outer loop
vertex 238.9 135.0 -4.99999999999992
vertex 240.364466094067 150.535533905933 -4.99999999999992
vertex 239.569872981077 149.5 -4.99999999999992
endloop
endfacet
facet normal 7.69081767967609e-017 7.49612724684943e-017 1.0
outer loop
vertex 238.9 135.0 -4.99999999999992
vertex 239.569872981077 149.5 -4.99999999999992
vertex 239.070370868554 148.294095225513 -4.99999999999992
endloop
endfacet
facet normal 7.69081767967609e-017 7.49612724684943e-017 1.0
outer loop
vertex 238.9 135.0 -4.99999999999992
vertex 239.070370868554 148.294095225513 -4.99999999999992
vertex 238.9 147.0 -4.99999999999992
endloop
endfacet
facet normal 1.80411241501588e-016 1.0 -1.23688819743457e-016
outer loop
vertex 238.9 140.0 -9.99999999999992
vertex 248.9 140.0 -52.682777641799
vertex 238.9 140.0 -52.682777641799
endloop
endfacet
facet normal 1.80411241501588e-016 1.0 -1.23688819743457e-016
outer loop
vertex 248.9 140.0 -52.682777641799
vertex 238.9 140.0 -9.99999999999992
vertex 248.9 140.0 -9.99999999999992
endloop
endfacet
facet normal -3.09323260801447e-016 0.446197813109797 -0.894934361602031
outer loop
vertex 238.9 149.018874792195 -60.2097253662616
vertex 248.9 149.55993037996 -59.8447787642291
vertex 248.9 149.018874792195 -60.2097253662616
endloop
endfacet
facet normal -1.80555970148308e-016 0.66262004821573 -0.748955720789009
outer loop
vertex 248.9 149.55993037996 -59.8447787642291
vertex 238.9 149.018874792195 -60.2097253662616
vertex 238.9 149.55993037996 -59.8447787642291
endloop
endfacet
facet normal 5.21289250916886e-016 0.748955720789011 0.662620048215728
outer loop
vertex 238.9 149.775769561393 -56.3158393417172
vertex 248.9 150.140716163426 -56.856894929482
vertex 238.9 150.140716163426 -56.856894929482
endloop
endfacet
facet normal 4.56795426646157e-016 0.894934361602032 0.446197813109795
outer loop
vertex 248.9 150.140716163426 -56.856894929482
vertex 238.9 149.775769561393 -56.3158393417172
vertex 248.9 149.775769561393 -56.3158393417172
endloop
endfacet
facet normal -1.0 1.61376743192526e-016 -5.30924804579846e-016
outer loop
vertex 238.9 150.274189397436 -58.7656511032693
vertex 238.9 150.353192020973 -57.4739696262136
vertex 238.9 150.398717255475 -58.1250108110937
endloop
endfacet
facet normal -1.0 1.61376743192526e-016 -5.30924804579846e-016
outer loop
vertex 238.9 150.353192020973 -57.4739696262136
vertex 238.9 150.274189397436 -58.7656511032693
vertex 238.9 150.140716163426 -56.856894929482
endloop
endfacet
facet normal -1.0 1.61376743192526e-016 -5.30924804579846e-016
outer loop
vertex 238.9 150.140716163426 -56.856894929482
vertex 238.9 150.274189397436 -58.7656511032693
vertex 238.9 149.988094814588 -59.3522319255367
endloop
endfacet
facet normal -1.0 1.61376743192526e-016 -5.30924804579846e-016
outer loop
vertex 238.9 150.140716163426 -56.856894929482
vertex 238.9 149.988094814588 -59.3522319255367
vertex 238.9 149.775769561393 -56.3158393417172
endloop
endfacet
facet normal -1.0 1.61376743192526e-016 -5.30924804579846e-016
outer loop
vertex 238.9 149.775769561393 -56.3158393417172
vertex 238.9 149.988094814588 -59.3522319255367
vertex 238.9 149.55993037996 -59.8447787642291
endloop
endfacet
facet normal -1.0 1.61376743192526e-016 -5.30924804579846e-016
outer loop
vertex 238.9 149.775769561393 -56.3158393417172
vertex 238.9 149.55993037996 -59.8447787642291
vertex 238.9 149.283222722701 -55.8876749070886
endloop
endfacet
facet normal -1.0 1.61376743192526e-016 -5.30924804579846e-016
outer loop
vertex 238.9 149.283222722701 -55.8876749070886
vertex 238.9 149.55993037996 -59.8447787642291
vertex 238.9 149.018874792195 -60.2097253662616
endloop
endfacet
facet normal -1.0 1.61376743192526e-016 -5.30924804579846e-016
outer loop
vertex 238.9 149.283222722701 -55.8876749070886
vertex 238.9 149.018874792195 -60.2097253662616
vertex 238.9 148.696641900433 -55.601580324241
endloop
endfacet
facet normal -1.0 1.61376743192526e-016 -5.30924804579846e-016
outer loop
vertex 238.9 148.696641900433 -55.601580324241
vertex 238.9 149.018874792195 -60.2097253662616
vertex 238.9 148.401800095463 -60.4222012238086
endloop
endfacet
facet normal -1.0 1.61376743192526e-016 -5.30924804579846e-016
outer loop
vertex 238.9 148.696641900433 -55.601580324241
vertex 238.9 148.401800095463 -60.4222012238086
vertex 238.9 140.0 -52.682777641799
endloop
endfacet
facet normal -1.0 1.61376743192526e-016 -5.30924804579846e-016
outer loop
vertex 238.9 140.0 -52.682777641799
vertex 238.9 148.401800095463 -60.4222012238086
vertex 238.9 147.750758910583 -60.4677264583112
endloop
endfacet
facet normal -1.0 1.61376743192526e-016 -5.30924804579846e-016
outer loop
vertex 238.9 140.0 -52.682777641799
vertex 238.9 147.750758910583 -60.4677264583112
vertex 238.9 147.110118618408 -60.343198600272
endloop
endfacet
facet normal -1.0 1.61376743192526e-016 -5.30924804579846e-016
outer loop
vertex 238.9 140.0 -52.682777641799
vertex 238.9 147.110118618408 -60.343198600272
vertex 238.9 21.0000000000001 -18.0434782608695
endloop
endfacet
facet normal -1.0 1.61376743192526e-016 -5.30924804579846e-016
outer loop
vertex 238.9 140.0 -52.682777641799
vertex 238.9 21.0000000000001 -18.0434782608695
vertex 238.9 135.0 -51.0057590082586
endloop
endfacet
facet normal -1.0 1.61376743192526e-016 -5.30924804579846e-016
outer loop
vertex 238.9 135.0 -51.0057590082586
vertex 238.9 21.0000000000001 -18.0434782608695
vertex 238.9 26.0000000000001 -14.4467527970785
endloop
endfacet
facet normal -1.0 1.61376743192526e-016 -5.30924804579846e-016
outer loop
vertex 238.9 26.0000000000001 -14.4467527970785
vertex 238.9 21.0000000000001 -18.0434782608695
vertex 238.9 26.0000000000001 -4.99999999999992
endloop
endfacet
facet normal -1.0 1.61376743192526e-016 -5.30924804579846e-016
outer loop
vertex 238.9 26.0000000000001 -4.99999999999992
vertex 238.9 21.0000000000001 -18.0434782608695
vertex 238.9 21.0000000000001 -9.99999999999992
endloop
endfacet
facet normal -1.0 1.61376743192526e-016 -5.30924804579846e-016
outer loop
vertex 238.9 26.0000000000001 -4.99999999999992
vertex 238.9 21.0000000000001 -9.99999999999992
vertex 238.9 14.0000000000001 -4.99999999999992
endloop
endfacet
facet normal -1.0 1.61376743192526e-016 -5.30924804579846e-016
outer loop
vertex 238.9 14.0000000000001 -4.99999999999992
vertex 238.9 21.0000000000001 -9.99999999999992
vertex 238.9 14.0000000000001 -9.99999999999992
endloop
endfacet
facet normal -1.0 1.61376743192526e-016 -5.30924804579846e-016
outer loop
vertex 238.9 140.0 -9.99999999999992
vertex 238.9 147.0 -4.99999999999992
vertex 238.9 147.0 -9.99999999999992
endloop
endfacet
facet normal -1.0 1.61376743192526e-016 -5.30924804579846e-016
outer loop
vertex 238.9 147.0 -4.99999999999992
vertex 238.9 140.0 -9.99999999999992
vertex 238.9 135.0 -4.99999999999992
endloop
endfacet
facet normal -1.0 1.61376743192526e-016 -5.30924804579846e-016
outer loop
vertex 238.9 135.0 -4.99999999999992
vertex 238.9 140.0 -9.99999999999992
vertex 238.9 140.0 -52.682777641799
endloop
endfacet
facet normal -1.0 1.61376743192526e-016 -5.30924804579846e-016
outer loop
vertex 238.9 135.0 -4.99999999999992
vertex 238.9 140.0 -52.682777641799
vertex 238.9 135.0 -51.0057590082586
endloop
endfacet
facet normal 4.56795426646157e-016 0.894934361602032 0.446197813109795
outer loop
vertex 238.9 150.140716163426 -56.856894929482
vertex 248.9 150.353192020973 -57.4739696262136
vertex 238.9 150.353192020973 -57.4739696262136
endloop
endfacet
facet normal 3.61171748939628e-016 0.979924704620833 0.199367934417182
outer loop
vertex 248.9 150.353192020973 -57.4739696262136
vertex 238.9 150.140716163426 -56.856894929482
vertex 248.9 150.140716163426 -56.856894929482
endloop
endfacet
facet normal -4.17010682411825e-016 0.199367934417181 -0.979924704620833
outer loop
vertex 238.9 148.401800095463 -60.4222012238086
vertex 248.9 149.018874792195 -60.2097253662616
vertex 248.9 148.401800095463 -60.4222012238086
endloop
endfacet
facet normal -3.09323260801447e-016 0.446197813109797 -0.894934361602031
outer loop
vertex 248.9 149.018874792195 -60.2097253662616
vertex 238.9 148.401800095463 -60.4222012238086
vertex 238.9 149.018874792195 -60.2097253662616
endloop
endfacet
facet normal 5.50258074208847e-016 0.551936985312069 0.833885822067161
outer loop
vertex 238.9 149.283222722701 -55.8876749070886
vertex 248.9 148.696641900433 -55.601580324241
vertex 248.9 149.283222722701 -55.8876749070886
endloop
endfacet
facet normal 5.50704247830615e-016 0.438371146789093 0.89879404629916
outer loop
vertex 248.9 148.696641900433 -55.601580324241
vertex 238.9 149.283222722701 -55.8876749070886
vertex 238.9 148.696641900433 -55.601580324241
endloop
endfacet
facet normal 2.40934813407399e-016 0.998134798421866 -0.0610485395348728
outer loop
vertex 238.9 150.398717255475 -58.1250108110937
vertex 248.9 150.274189397436 -58.7656511032693
vertex 238.9 150.274189397436 -58.7656511032693
endloop
endfacet
facet normal 1.0427856850506e-016 0.948323655206194 -0.317304656405108
outer loop
vertex 248.9 150.274189397436 -58.7656511032693
vertex 238.9 150.398717255475 -58.1250108110937
vertex 248.9 150.398717255475 -58.1250108110937
endloop
endfacet
facet normal -5.23482078876368e-016 -0.190808995376559 -0.981627183447661
outer loop
vertex 238.9 147.110118618408 -60.343198600272
vertex 248.9 147.750758910583 -60.4677264583112
vertex 248.9 147.110118618408 -60.343198600272
endloop
endfacet
facet normal -4.96279515158572e-016 -0.0610485395348732 -0.998134798421866
outer loop
vertex 248.9 147.750758910583 -60.4677264583112
vertex 238.9 147.110118618408 -60.343198600272
vertex 238.9 147.750758910583 -60.4677264583112
endloop
endfacet
facet normal 3.61171748939628e-016 0.979924704620833 0.199367934417182
outer loop
vertex 238.9 150.353192020973 -57.4739696262136
vertex 248.9 150.398717255475 -58.1250108110937
vertex 238.9 150.398717255475 -58.1250108110937
endloop
endfacet
facet normal 2.40934813407399e-016 0.998134798421866 -0.0610485395348728
outer loop
vertex 248.9 150.398717255475 -58.1250108110937
vertex 238.9 150.353192020973 -57.4739696262136
vertex 248.9 150.353192020973 -57.4739696262136
endloop
endfacet
facet normal -1.80411241501588e-016 -1.0 0.0
outer loop
vertex 248.9 21.0000000000001 -9.99999999999992
vertex 238.9 21.0000000000001 -18.0434782608695
vertex 248.9 21.0000000000001 -18.0434782608695
endloop
endfacet
facet normal -1.80411241501588e-016 -1.0 0.0
outer loop
vertex 238.9 21.0000000000001 -18.0434782608695
vertex 248.9 21.0000000000001 -9.99999999999992
vertex 238.9 21.0000000000001 -9.99999999999992
endloop
endfacet
facet normal -3.9484088512414e-017 0.833885822067161 -0.551936985312069
outer loop
vertex 238.9 149.988094814588 -59.3522319255367
vertex 248.9 149.55993037996 -59.8447787642291
vertex 238.9 149.55993037996 -59.8447787642291
endloop
endfacet
facet normal -1.80555970148308e-016 0.66262004821573 -0.748955720789009
outer loop
vertex 248.9 149.55993037996 -59.8447787642291
vertex 238.9 149.988094814588 -59.3522319255367
vertex 248.9 149.988094814588 -59.3522319255367
endloop
endfacet
facet normal -4.96279515158572e-016 -0.0610485395348732 -0.998134798421866
outer loop
vertex 238.9 147.750758910583 -60.4677264583112
vertex 248.9 148.401800095463 -60.4222012238086
vertex 248.9 147.750758910583 -60.4677264583112
endloop
endfacet
facet normal -4.17010682411825e-016 0.199367934417181 -0.979924704620833
outer loop
vertex 248.9 148.401800095463 -60.4222012238086
vertex 238.9 147.750758910583 -60.4677264583112
vertex 238.9 148.401800095463 -60.4222012238086
endloop
endfacet
facet normal 2.70782561014709e-016 1.0 -2.15815188549818e-031
outer loop
vertex 238.9 26.0000000000001 -4.99999999999992
vertex 248.9 26.0000000000001 -14.4467527970785
vertex 238.9 26.0000000000001 -14.4467527970785
endloop
endfacet
facet normal 2.70782561014709e-016 1.0 -2.15815188549818e-031
outer loop
vertex 248.9 26.0000000000001 -14.4467527970785
vertex 238.9 26.0000000000001 -4.99999999999992
vertex 248.9 26.0000000000001 -4.99999999999992
endloop
endfacet
facet normal 5.21289250916886e-016 0.748955720789011 0.662620048215728
outer loop
vertex 238.9 149.775769561393 -56.3158393417172
vertex 248.9 149.283222722701 -55.8876749070886
vertex 248.9 149.775769561393 -56.3158393417172
endloop
endfacet
facet normal 5.50258074208847e-016 0.551936985312069 0.833885822067161
outer loop
vertex 248.9 149.283222722701 -55.8876749070886
vertex 238.9 149.775769561393 -56.3158393417172
vertex 238.9 149.283222722701 -55.8876749070886
endloop
endfacet
facet normal 1.0427856850506e-016 0.948323655206194 -0.317304656405108
outer loop
vertex 238.9 150.274189397436 -58.7656511032693
vertex 248.9 149.988094814588 -59.3522319255367
vertex 238.9 149.988094814588 -59.3522319255367
endloop
endfacet
facet normal -3.9484088512414e-017 0.833885822067161 -0.551936985312069
outer loop
vertex 248.9 149.988094814588 -59.3522319255367
vertex 238.9 150.274189397436 -58.7656511032693
vertex 248.9 150.274189397436 -58.7656511032693
endloop
endfacet
facet normal 5.41823936833048e-016 0.318181645378757 0.948029767752082
outer loop
vertex 238.9 148.696641900433 -55.601580324241
vertex 248.9 140.0 -52.682777641799
vertex 248.9 148.696641900433 -55.601580324241
endloop
endfacet
facet normal 5.41823936833048e-016 0.318181645378757 0.948029767752082
outer loop
vertex 248.9 140.0 -52.682777641799
vertex 238.9 148.696641900433 -55.601580324241
vertex 238.9 140.0 -52.682777641799
endloop
endfacet
facet normal -5.41804788713792e-016 -0.318006801903066 -0.948088431499607
outer loop
vertex 238.9 21.0000000000001 -18.0434782608695
vertex 248.9 147.110118618408 -60.343198600272
vertex 248.9 21.0000000000001 -18.0434782608695
endloop
endfacet
facet normal -5.41804788713792e-016 -0.318006801903066 -0.948088431499607
outer loop
vertex 248.9 147.110118618408 -60.343198600272
vertex 238.9 21.0000000000001 -18.0434782608695
vertex 238.9 147.110118618408 -60.343198600272
endloop
endfacet
facet normal 7.69081767967609e-017 -7.49612724684943e-017 1.0
outer loop
vertex 238.9 26.0000000000001 -4.99999999999992
vertex 248.9 14.0000000000001 -4.99999999999992
vertex 248.9 26.0000000000001 -4.99999999999992
endloop
endfacet
facet normal 7.69081767967609e-017 -7.49612724684943e-017 1.0
outer loop
vertex 248.9 14.0000000000001 -4.99999999999992
vertex 238.9 26.0000000000001 -4.99999999999992
vertex 248.729629131445 12.7059047744875 -4.99999999999992
endloop
endfacet
facet normal 7.69081767967609e-017 -7.49612724684943e-017 1.0
outer loop
vertex 248.729629131445 12.7059047744875 -4.99999999999992
vertex 238.9 26.0000000000001 -4.99999999999992
vertex 248.230127018922 11.5000000000001 -4.99999999999992
endloop
endfacet
facet normal 7.69081767967609e-017 -7.49612724684943e-017 1.0
outer loop
vertex 248.230127018922 11.5000000000001 -4.99999999999992
vertex 238.9 26.0000000000001 -4.99999999999992
vertex 245.632050807568 15.0000000000001 -4.99999999999992
endloop
endfacet
facet normal 7.69081767967609e-017 -7.49612724684943e-017 1.0
outer loop
vertex 248.230127018922 11.5000000000001 -4.99999999999992
vertex 245.632050807568 15.0000000000001 -4.99999999999992
vertex 245.831851652578 14.5176380902051 -4.99999999999992
endloop
endfacet
facet normal 7.69081767967609e-017 -7.49612724684943e-017 1.0
outer loop
vertex 248.230127018922 11.5000000000001 -4.99999999999992
vertex 245.831851652578 14.5176380902051 -4.99999999999992
vertex 247.435533905932 10.4644660940674 -4.99999999999992
endloop
endfacet
facet normal 7.69081767967609e-017 -7.49612724684943e-017 1.0
outer loop
vertex 247.435533905932 10.4644660940674 -4.99999999999992
vertex 245.831851652578 14.5176380902051 -4.99999999999992
vertex 245.9 14.0000000000001 -4.99999999999992
endloop
endfacet
facet normal 7.69081767967609e-017 -7.49612724684943e-017 1.0
outer loop
vertex 247.435533905932 10.4644660940674 -4.99999999999992
vertex 245.9 14.0000000000001 -4.99999999999992
vertex 246.4 9.6698729810779 -4.99999999999992
endloop
endfacet
facet normal 7.69081767967609e-017 -7.49612724684943e-017 1.0
outer loop
vertex 245.632050807568 15.0000000000001 -4.99999999999992
vertex 238.9 26.0000000000001 -4.99999999999992
vertex 245.314213562373 15.4142135623732 -4.99999999999992
endloop
endfacet
facet normal 7.69081767967609e-017 -7.49612724684943e-017 1.0
outer loop
vertex 245.314213562373 15.4142135623732 -4.99999999999992
vertex 238.9 26.0000000000001 -4.99999999999992
vertex 244.9 15.732050807569 -4.99999999999992
endloop
endfacet
facet normal 7.69081767967609e-017 -7.49612724684943e-017 1.0
outer loop
vertex 244.9 15.732050807569 -4.99999999999992
vertex 238.9 26.0000000000001 -4.99999999999992
vertex 244.417638090205 15.9318516525782 -4.99999999999992
endloop
endfacet
facet normal 7.69081767967609e-017 -7.49612724684943e-017 1.0
outer loop
vertex 244.417638090205 15.9318516525782 -4.99999999999992
vertex 238.9 26.0000000000001 -4.99999999999992
vertex 243.9 16.0000000000001 -4.99999999999992
endloop
endfacet
facet normal 7.69081767967609e-017 -7.49612724684943e-017 1.0
outer loop
vertex 243.9 16.0000000000001 -4.99999999999992
vertex 238.9 26.0000000000001 -4.99999999999992
vertex 243.382361909795 15.9318516525782 -4.99999999999992
endloop
endfacet
facet normal 7.69081767967609e-017 -7.49612724684943e-017 1.0
outer loop
vertex 243.382361909795 15.9318516525782 -4.99999999999992
vertex 238.9 26.0000000000001 -4.99999999999992
vertex 242.9 15.732050807569 -4.99999999999992
endloop
endfacet
facet normal 7.69081767967609e-017 -7.49612724684943e-017 1.0
outer loop
vertex 242.9 15.732050807569 -4.99999999999992
vertex 238.9 26.0000000000001 -4.99999999999992
vertex 242.485786437626 15.4142135623732 -4.99999999999992
endloop
endfacet
facet normal 7.69081767967609e-017 -7.49612724684943e-017 1.0
outer loop
vertex 242.485786437626 15.4142135623732 -4.99999999999992
vertex 238.9 26.0000000000001 -4.99999999999992
vertex 242.167949192431 15.0000000000001 -4.99999999999992
endloop
endfacet
facet normal 7.69081767967609e-017 -7.49612724684943e-017 1.0
outer loop
vertex 242.167949192431 15.0000000000001 -4.99999999999992
vertex 238.9 26.0000000000001 -4.99999999999992
vertex 241.968148347421 14.5176380902051 -4.99999999999992
endloop
endfacet
facet normal 7.69081767967609e-017 -7.49612724684943e-017 1.0
outer loop
vertex 241.968148347421 14.5176380902051 -4.99999999999992
vertex 238.9 26.0000000000001 -4.99999999999992
vertex 241.9 14.0000000000001 -4.99999999999992
endloop
endfacet
facet normal 7.69081767967609e-017 -7.49612724684943e-017 1.0
outer loop
vertex 241.9 14.0000000000001 -4.99999999999992
vertex 238.9 26.0000000000001 -4.99999999999992
vertex 241.4 9.6698729810779 -4.99999999999992
endloop
endfacet
facet normal 7.69081767967609e-017 -7.49612724684943e-017 1.0
outer loop
vertex 241.4 9.6698729810779 -4.99999999999992
vertex 238.9 26.0000000000001 -4.99999999999992
vertex 240.364466094067 10.4644660940674 -4.99999999999992
endloop
endfacet
facet normal 7.69081767967609e-017 -7.49612724684943e-017 1.0
outer loop
vertex 240.364466094067 10.4644660940674 -4.99999999999992
vertex 238.9 26.0000000000001 -4.99999999999992
vertex 239.569872981077 11.5000000000001 -4.99999999999992
endloop
endfacet
facet normal 7.69081767967609e-017 -7.49612724684943e-017 1.0
outer loop
vertex 239.569872981077 11.5000000000001 -4.99999999999992
vertex 238.9 26.0000000000001 -4.99999999999992
vertex 239.070370868554 12.7059047744875 -4.99999999999992
endloop
endfacet
facet normal 7.69081767967609e-017 -7.49612724684943e-017 1.0
outer loop
vertex 239.070370868554 12.7059047744875 -4.99999999999992
vertex 238.9 26.0000000000001 -4.99999999999992
vertex 238.9 14.0000000000001 -4.99999999999992
endloop
endfacet
facet normal 7.69081767967609e-017 -7.49612724684943e-017 1.0
outer loop
vertex 246.4 9.6698729810779 -4.99999999999992
vertex 245.831851652578 13.482361909795 -4.99999999999992
vertex 245.194095225512 9.17037086855476 -4.99999999999992
endloop
endfacet
facet normal 7.69081767967609e-017 -7.49612724684943e-017 1.0
outer loop
vertex 245.831851652578 13.482361909795 -4.99999999999992
vertex 246.4 9.6698729810779 -4.99999999999992
vertex 245.9 14.0000000000001 -4.99999999999992
endloop
endfacet
facet normal 7.69081767967609e-017 -7.49612724684943e-017 1.0
outer loop
vertex 245.194095225512 9.17037086855476 -4.99999999999992
vertex 245.831851652578 13.482361909795 -4.99999999999992
vertex 245.632050807568 13.0000000000001 -4.99999999999992
endloop
endfacet
facet normal 7.69081767967609e-017 -7.49612724684943e-017 1.0
outer loop
vertex 245.194095225512 9.17037086855476 -4.99999999999992
vertex 245.632050807568 13.0000000000001 -4.99999999999992
vertex 245.314213562373 12.585786437627 -4.99999999999992
endloop
endfacet
facet normal 7.69081767967609e-017 -7.49612724684943e-017 1.0
outer loop
vertex 245.194095225512 9.17037086855476 -4.99999999999992
vertex 245.314213562373 12.585786437627 -4.99999999999992
vertex 244.9 12.2679491924312 -4.99999999999992
endloop
endfacet
facet normal 7.69081767967609e-017 -7.49612724684943e-017 1.0
outer loop
vertex 245.194095225512 9.17037086855476 -4.99999999999992
vertex 244.9 12.2679491924312 -4.99999999999992
vertex 243.9 9.0000000000001 -4.99999999999992
endloop
endfacet
facet normal 7.69081767967609e-017 -7.49612724684943e-017 1.0
outer loop
vertex 243.9 9.0000000000001 -4.99999999999992
vertex 244.9 12.2679491924312 -4.99999999999992
vertex 244.417638090205 12.0681483474219 -4.99999999999992
endloop
endfacet
facet normal 7.69081767967609e-017 -7.49612724684943e-017 1.0
outer loop
vertex 243.9 9.0000000000001 -4.99999999999992
vertex 244.417638090205 12.0681483474219 -4.99999999999992
vertex 243.9 12.0000000000001 -4.99999999999992
endloop
endfacet
facet normal 7.69081767967609e-017 -7.49612724684943e-017 1.0
outer loop
vertex 243.9 9.0000000000001 -4.99999999999992
vertex 243.9 12.0000000000001 -4.99999999999992
vertex 243.382361909795 12.0681483474219 -4.99999999999992
endloop
endfacet
facet normal 7.69081767967609e-017 -7.49612724684943e-017 1.0
outer loop
vertex 243.9 9.0000000000001 -4.99999999999992
vertex 243.382361909795 12.0681483474219 -4.99999999999992
vertex 242.605904774487 9.17037086855476 -4.99999999999992
endloop
endfacet
facet normal 7.69081767967609e-017 -7.49612724684943e-017 1.0
outer loop
vertex 242.605904774487 9.17037086855476 -4.99999999999992
vertex 243.382361909795 12.0681483474219 -4.99999999999992
vertex 242.9 12.2679491924312 -4.99999999999992
endloop
endfacet
facet normal 7.69081767967609e-017 -7.49612724684943e-017 1.0
outer loop
vertex 242.605904774487 9.17037086855476 -4.99999999999992
vertex 242.9 12.2679491924312 -4.99999999999992
vertex 242.485786437626 12.585786437627 -4.99999999999992
endloop
endfacet
facet normal 7.69081767967609e-017 -7.49612724684943e-017 1.0
outer loop
vertex 242.605904774487 9.17037086855476 -4.99999999999992
vertex 242.485786437626 12.585786437627 -4.99999999999992
vertex 241.4 9.6698729810779 -4.99999999999992
endloop
endfacet
facet normal 7.69081767967609e-017 -7.49612724684943e-017 1.0
outer loop
vertex 241.4 9.6698729810779 -4.99999999999992
vertex 242.485786437626 12.585786437627 -4.99999999999992
vertex 242.167949192431 13.0000000000001 -4.99999999999992
endloop
endfacet
facet normal 7.69081767967609e-017 -7.49612724684943e-017 1.0
outer loop
vertex 241.4 9.6698729810779 -4.99999999999992
vertex 242.167949192431 13.0000000000001 -4.99999999999992
vertex 241.968148347421 13.482361909795 -4.99999999999992
endloop
endfacet
facet normal 7.69081767967609e-017 -7.49612724684943e-017 1.0
outer loop
vertex 241.4 9.6698729810779 -4.99999999999992
vertex 241.968148347421 13.482361909795 -4.99999999999992
vertex 241.9 14.0000000000001 -4.99999999999992
endloop
endfacet
facet normal 0.258819045102521 0.965925826289068 0.0
outer loop
vertex 245.194095225512 151.829629131445 -4.99999999999992
vertex 246.4 151.330127018922 -9.99999999999992
vertex 245.194095225512 151.829629131445 -9.99999999999992
endloop
endfacet
facet normal 0.500000000000002 0.866025403784438 0.0
outer loop
vertex 246.4 151.330127018922 -9.99999999999992
vertex 245.194095225512 151.829629131445 -4.99999999999992
vertex 246.4 151.330127018922 -4.99999999999992
endloop
endfacet
facet normal -0.0 0.0 -1.0
outer loop
vertex 238.9 140.0 -9.99999999999992
vertex 248.9 147.0 -9.99999999999992
vertex 248.9 140.0 -9.99999999999992
endloop
endfacet
facet normal -0.0 0.0 -1.0
outer loop
vertex 248.9 147.0 -9.99999999999992
vertex 238.9 140.0 -9.99999999999992
vertex 248.729629131445 148.294095225513 -9.99999999999992
endloop
endfacet
facet normal -0.0 0.0 -1.0
outer loop
vertex 248.729629131445 148.294095225513 -9.99999999999992
vertex 238.9 140.0 -9.99999999999992
vertex 245.314213562373 145.585786437627 -9.99999999999992
endloop
endfacet
facet normal -0.0 0.0 -1.0
outer loop
vertex 248.729629131445 148.294095225513 -9.99999999999992
vertex 245.314213562373 145.585786437627 -9.99999999999992
vertex 245.632050807568 146.0 -9.99999999999992
endloop
endfacet
facet normal -0.0 0.0 -1.0
outer loop
vertex 248.729629131445 148.294095225513 -9.99999999999992
vertex 245.632050807568 146.0 -9.99999999999992
vertex 248.230127018922 149.5 -9.99999999999992
endloop
endfacet
facet normal -0.0 0.0 -1.0
outer loop
vertex 248.230127018922 149.5 -9.99999999999992
vertex 245.632050807568 146.0 -9.99999999999992
vertex 245.831851652578 146.482361909795 -9.99999999999992
endloop
endfacet
facet normal -0.0 0.0 -1.0
outer loop
vertex 248.230127018922 149.5 -9.99999999999992
vertex 245.831851652578 146.482361909795 -9.99999999999992
vertex 247.435533905932 150.535533905933 -9.99999999999992
endloop
endfacet
facet normal -0.0 0.0 -1.0
outer loop
vertex 247.435533905932 150.535533905933 -9.99999999999992
vertex 245.831851652578 146.482361909795 -9.99999999999992
vertex 245.9 147.0 -9.99999999999992
endloop
endfacet
facet normal -0.0 0.0 -1.0
outer loop
vertex 247.435533905932 150.535533905933 -9.99999999999992
vertex 245.9 147.0 -9.99999999999992
vertex 246.4 151.330127018922 -9.99999999999992
endloop
endfacet
facet normal -0.0 0.0 -1.0
outer loop
vertex 245.314213562373 145.585786437627 -9.99999999999992
vertex 238.9 140.0 -9.99999999999992
vertex 244.9 145.267949192431 -9.99999999999992
endloop
endfacet
facet normal -0.0 0.0 -1.0
outer loop
vertex 244.9 145.267949192431 -9.99999999999992
vertex 238.9 140.0 -9.99999999999992
vertex 244.417638090205 145.068148347422 -9.99999999999992
endloop
endfacet
facet normal -0.0 0.0 -1.0
outer loop
vertex 244.417638090205 145.068148347422 -9.99999999999992
vertex 238.9 140.0 -9.99999999999992
vertex 243.9 145.0 -9.99999999999992
endloop
endfacet
facet normal -0.0 0.0 -1.0
outer loop
vertex 243.9 145.0 -9.99999999999992
vertex 238.9 140.0 -9.99999999999992
vertex 243.382361909795 145.068148347422 -9.99999999999992
endloop
endfacet
facet normal -0.0 0.0 -1.0
outer loop
vertex 243.382361909795 145.068148347422 -9.99999999999992
vertex 238.9 140.0 -9.99999999999992
vertex 242.9 145.267949192431 -9.99999999999992
endloop
endfacet
facet normal -0.0 0.0 -1.0
outer loop
vertex 242.9 145.267949192431 -9.99999999999992
vertex 238.9 140.0 -9.99999999999992
vertex 242.485786437626 145.585786437627 -9.99999999999992
endloop
endfacet
facet normal -0.0 0.0 -1.0
outer loop
vertex 242.485786437626 145.585786437627 -9.99999999999992
vertex 238.9 140.0 -9.99999999999992
vertex 242.167949192431 146.0 -9.99999999999992
endloop
endfacet
facet normal -0.0 0.0 -1.0
outer loop
vertex 242.167949192431 146.0 -9.99999999999992
vertex 238.9 140.0 -9.99999999999992
vertex 241.968148347421 146.482361909795 -9.99999999999992
endloop
endfacet
facet normal -0.0 0.0 -1.0
outer loop
vertex 241.968148347421 146.482361909795 -9.99999999999992
vertex 238.9 140.0 -9.99999999999992
vertex 241.9 147.0 -9.99999999999992
endloop
endfacet
facet normal -0.0 0.0 -1.0
outer loop
vertex 241.9 147.0 -9.99999999999992
vertex 238.9 140.0 -9.99999999999992
vertex 241.4 151.330127018922 -9.99999999999992
endloop
endfacet
facet normal -0.0 0.0 -1.0
outer loop
vertex 241.4 151.330127018922 -9.99999999999992
vertex 238.9 140.0 -9.99999999999992
vertex 240.364466094067 150.535533905933 -9.99999999999992
endloop
endfacet
facet normal -0.0 0.0 -1.0
outer loop
vertex 240.364466094067 150.535533905933 -9.99999999999992
vertex 238.9 140.0 -9.99999999999992
vertex 239.569872981077 149.5 -9.99999999999992
endloop
endfacet
facet normal -0.0 0.0 -1.0
outer loop
vertex 239.569872981077 149.5 -9.99999999999992
vertex 238.9 140.0 -9.99999999999992
vertex 239.070370868554 148.294095225513 -9.99999999999992
endloop
endfacet
facet normal -0.0 0.0 -1.0
outer loop
vertex 239.070370868554 148.294095225513 -9.99999999999992
vertex 238.9 140.0 -9.99999999999992
vertex 238.9 147.0 -9.99999999999992
endloop
endfacet
facet normal -0.0 0.0 -1.0
outer loop
vertex 246.4 151.330127018922 -9.99999999999992
vertex 245.831851652578 147.517638090205 -9.99999999999992
vertex 245.194095225512 151.829629131445 -9.99999999999992
endloop
endfacet
facet normal -0.0 0.0 -1.0
outer loop
vertex 245.831851652578 147.517638090205 -9.99999999999992
vertex 246.4 151.330127018922 -9.99999999999992
vertex 245.9 147.0 -9.99999999999992
endloop
endfacet
facet normal -0.0 0.0 -1.0
outer loop
vertex 245.194095225512 151.829629131445 -9.99999999999992
vertex 245.831851652578 147.517638090205 -9.99999999999992
vertex 245.632050807568 148.0 -9.99999999999992
endloop
endfacet
facet normal -0.0 0.0 -1.0
outer loop
vertex 245.194095225512 151.829629131445 -9.99999999999992
vertex 245.632050807568 148.0 -9.99999999999992
vertex 245.314213562373 148.414213562373 -9.99999999999992
endloop
endfacet
facet normal -0.0 0.0 -1.0
outer loop
vertex 245.194095225512 151.829629131445 -9.99999999999992
vertex 245.314213562373 148.414213562373 -9.99999999999992
vertex 244.9 148.732050807569 -9.99999999999992
endloop
endfacet
facet normal -0.0 0.0 -1.0
outer loop
vertex 245.194095225512 151.829629131445 -9.99999999999992
vertex 244.9 148.732050807569 -9.99999999999992
vertex 243.9 152.0 -9.99999999999992
endloop
endfacet
facet normal -0.0 0.0 -1.0
outer loop
vertex 243.9 152.0 -9.99999999999992
vertex 244.9 148.732050807569 -9.99999999999992
vertex 244.417638090205 148.931851652578 -9.99999999999992
endloop
endfacet
facet normal -0.0 0.0 -1.0
outer loop
vertex 243.9 152.0 -9.99999999999992
vertex 244.417638090205 148.931851652578 -9.99999999999992
vertex 243.9 149.0 -9.99999999999992
endloop
endfacet
facet normal -0.0 0.0 -1.0
outer loop
vertex 243.9 152.0 -9.99999999999992
vertex 243.9 149.0 -9.99999999999992
vertex 243.382361909795 148.931851652578 -9.99999999999992
endloop
endfacet
facet normal -0.0 0.0 -1.0
outer loop
vertex 243.9 152.0 -9.99999999999992
vertex 243.382361909795 148.931851652578 -9.99999999999992
vertex 242.605904774487 151.829629131445 -9.99999999999992
endloop
endfacet
facet normal -0.0 0.0 -1.0
outer loop
vertex 242.605904774487 151.829629131445 -9.99999999999992
vertex 243.382361909795 148.931851652578 -9.99999999999992
vertex 242.9 148.732050807569 -9.99999999999992
endloop
endfacet
facet normal -0.0 0.0 -1.0
outer loop
vertex 242.605904774487 151.829629131445 -9.99999999999992
vertex 242.9 148.732050807569 -9.99999999999992
vertex 242.485786437626 148.414213562373 -9.99999999999992
endloop
endfacet
facet normal -0.0 0.0 -1.0
outer loop
vertex 242.605904774487 151.829629131445 -9.99999999999992
vertex 242.485786437626 148.414213562373 -9.99999999999992
vertex 241.4 151.330127018922 -9.99999999999992
endloop
endfacet
facet normal -0.0 0.0 -1.0
outer loop
vertex 241.4 151.330127018922 -9.99999999999992
vertex 242.485786437626 148.414213562373 -9.99999999999992
vertex 242.167949192431 148.0 -9.99999999999992
endloop
endfacet
facet normal -0.0 0.0 -1.0
outer loop
vertex 241.4 151.330127018922 -9.99999999999992
vertex 242.167949192431 148.0 -9.99999999999992
vertex 241.968148347421 147.517638090205 -9.99999999999992
endloop
endfacet
facet normal -0.0 0.0 -1.0
outer loop
vertex 241.4 151.330127018922 -9.99999999999992
vertex 241.968148347421 147.517638090205 -9.99999999999992
vertex 241.9 147.0 -9.99999999999992
endloop
endfacet
facet normal 0.99144486137381 0.130526192220056 0.0
outer loop
vertex 248.9 147.0 -4.99999999999992
vertex 248.729629131445 148.294095225513 -9.99999999999992
vertex 248.729629131445 148.294095225513 -4.99999999999992
endloop
endfacet
facet normal 0.965925826289069 0.258819045102519 0.0
outer loop
vertex 248.729629131445 148.294095225513 -9.99999999999992
vertex 248.9 147.0 -4.99999999999992
vertex 248.9 147.0 -9.99999999999992
endloop
endfacet
facet normal 0.500000000000002 0.866025403784438 0.0
outer loop
vertex 246.4 151.330127018922 -4.99999999999992
vertex 247.435533905932 150.535533905933 -9.99999999999992
vertex 246.4 151.330127018922 -9.99999999999992
endloop
endfacet
facet normal 0.707106781186546 0.707106781186549 0.0
outer loop
vertex 247.435533905932 150.535533905933 -9.99999999999992
vertex 246.4 151.330127018922 -4.99999999999992
vertex 247.435533905932 150.535533905933 -4.99999999999992
endloop
endfacet
facet normal 0.866025403784439 0.5 0.0
outer loop
vertex 248.230127018922 149.5 -4.99999999999992
vertex 247.435533905932 150.535533905933 -9.99999999999992
vertex 247.435533905932 150.535533905933 -4.99999999999992
endloop
endfacet
facet normal 0.707106781186546 0.707106781186549 0.0
outer loop
vertex 247.435533905932 150.535533905933 -9.99999999999992
vertex 248.230127018922 149.5 -4.99999999999992
vertex 248.230127018922 149.5 -9.99999999999992
endloop
endfacet
facet normal 0.965925826289069 0.258819045102519 0.0
outer loop
vertex 248.729629131445 148.294095225513 -4.99999999999992
vertex 248.230127018922 149.5 -9.99999999999992
vertex 248.230127018922 149.5 -4.99999999999992
endloop
endfacet
facet normal 0.866025403784439 0.5 0.0
outer loop
vertex 248.230127018922 149.5 -9.99999999999992
vertex 248.729629131445 148.294095225513 -4.99999999999992
vertex 248.729629131445 148.294095225513 -9.99999999999992
endloop
endfacet
facet normal -0.965925826289069 0.258819045102519 0.0
outer loop
vertex 239.070370868554 148.294095225513 -9.99999999999992
vertex 239.569872981077 149.5 -4.99999999999992
vertex 239.569872981077 149.5 -9.99999999999992
endloop
endfacet
facet normal -0.866025403784439 0.5 0.0
outer loop
vertex 239.569872981077 149.5 -4.99999999999992
vertex 239.070370868554 148.294095225513 -9.99999999999992
vertex 239.070370868554 148.294095225513 -4.99999999999992
endloop
endfacet
facet normal -0.99144486137381 0.130526192220056 0.0
outer loop
vertex 238.9 147.0 -9.99999999999992
vertex 239.070370868554 148.294095225513 -4.99999999999992
vertex 239.070370868554 148.294095225513 -9.99999999999992
endloop
endfacet
facet normal -0.965925826289069 0.258819045102519 0.0
outer loop
vertex 239.070370868554 148.294095225513 -4.99999999999992
vertex 238.9 147.0 -9.99999999999992
vertex 238.9 147.0 -4.99999999999992
endloop
endfacet
facet normal -0.258819045102521 0.965925826289068 0.0
outer loop
vertex 242.605904774487 151.829629131445 -4.99999999999992
vertex 243.9 152.0 -9.99999999999992
vertex 242.605904774487 151.829629131445 -9.99999999999992
endloop
endfacet
facet normal 1.80411241501588e-016 1.0 0.0
outer loop
vertex 243.9 152.0 -9.99999999999992
vertex 242.605904774487 151.829629131445 -4.99999999999992
vertex 243.9 152.0 -4.99999999999992
endloop
endfacet
facet normal 0.965925826289067 -0.258819045102526 0.0
outer loop
vertex 241.968148347421 147.517638090205 -4.99999999999992
vertex 242.167949192431 148.0 -9.99999999999992
vertex 242.167949192431 148.0 -4.99999999999992
endloop
endfacet
facet normal 0.866025403784435 -0.500000000000006 0.0
outer loop
vertex 242.167949192431 148.0 -9.99999999999992
vertex 241.968148347421 147.517638090205 -4.99999999999992
vertex 241.968148347421 147.517638090205 -9.99999999999992
endloop
endfacet
facet normal 0.866025403784435 -0.500000000000006 0.0
outer loop
vertex 242.167949192431 148.0 -4.99999999999992
vertex 242.485786437626 148.414213562373 -9.99999999999992
vertex 242.485786437626 148.414213562373 -4.99999999999992
endloop
endfacet
facet normal 0.707106781186551 -0.707106781186544 0.0
outer loop
vertex 242.485786437626 148.414213562373 -9.99999999999992
vertex 242.167949192431 148.0 -4.99999999999992
vertex 242.167949192431 148.0 -9.99999999999992
endloop
endfacet
facet normal -0.707106781186546 0.707106781186549 0.0
outer loop
vertex 240.364466094067 150.535533905933 -4.99999999999992
vertex 241.4 151.330127018922 -9.99999999999992
vertex 240.364466094067 150.535533905933 -9.99999999999992
endloop
endfacet
facet normal -0.500000000000001 0.866025403784438 0.0
outer loop
vertex 241.4 151.330127018922 -9.99999999999992
vertex 240.364466094067 150.535533905933 -4.99999999999992
vertex 241.4 151.330127018922 -4.99999999999992
endloop
endfacet
facet normal 0.258819045102521 0.965925826289068 0.0
outer loop
vertex 243.382361909795 145.068148347422 -4.99999999999992
vertex 243.9 145.0 -9.99999999999992
vertex 243.382361909795 145.068148347422 -9.99999999999992
endloop
endfacet
facet normal 1.80411241501588e-016 1.0 0.0
outer loop
vertex 243.9 145.0 -9.99999999999992
vertex 243.382361909795 145.068148347422 -4.99999999999992
vertex 243.9 145.0 -4.99999999999992
endloop
endfacet
facet normal 1.80411241501588e-016 1.0 0.0
outer loop
vertex 243.9 152.0 -4.99999999999992
vertex 245.194095225512 151.829629131445 -9.99999999999992
vertex 243.9 152.0 -9.99999999999992
endloop
endfacet
facet normal 0.258819045102521 0.965925826289068 0.0
outer loop
vertex 245.194095225512 151.829629131445 -9.99999999999992
vertex 243.9 152.0 -4.99999999999992
vertex 245.194095225512 151.829629131445 -4.99999999999992
endloop
endfacet
facet normal -0.500000000000001 0.866025403784438 0.0
outer loop
vertex 241.4 151.330127018922 -4.99999999999992
vertex 242.605904774487 151.829629131445 -9.99999999999992
vertex 241.4 151.330127018922 -9.99999999999992
endloop
endfacet
facet normal -0.258819045102521 0.965925826289068 0.0
outer loop
vertex 242.605904774487 151.829629131445 -9.99999999999992
vertex 241.4 151.330127018922 -4.99999999999992
vertex 242.605904774487 151.829629131445 -4.99999999999992
endloop
endfacet
facet normal -0.866025403784439 0.5 0.0
outer loop
vertex 239.569872981077 149.5 -9.99999999999992
vertex 240.364466094067 150.535533905933 -4.99999999999992
vertex 240.364466094067 150.535533905933 -9.99999999999992
endloop
endfacet
facet normal -0.707106781186546 0.707106781186549 0.0
outer loop
vertex 240.364466094067 150.535533905933 -4.99999999999992
vertex 239.569872981077 149.5 -9.99999999999992
vertex 239.569872981077 149.5 -4.99999999999992
endloop
endfacet
facet normal 0.499999999999998 0.86602540378444 0.0
outer loop
vertex 242.9 145.267949192431 -4.99999999999992
vertex 243.382361909795 145.068148347422 -9.99999999999992
vertex 242.9 145.267949192431 -9.99999999999992
endloop
endfacet
facet normal 0.258819045102521 0.965925826289068 0.0
outer loop
vertex 243.382361909795 145.068148347422 -9.99999999999992
vertex 242.9 145.267949192431 -4.99999999999992
vertex 243.382361909795 145.068148347422 -4.99999999999992
endloop
endfacet
facet normal 0.707106781186553 0.707106781186542 0.0
outer loop
vertex 242.485786437626 145.585786437627 -4.99999999999992
vertex 242.167949192431 146.0 -9.99999999999992
vertex 242.167949192431 146.0 -4.99999999999992
endloop
endfacet
facet normal 0.866025403784436 0.500000000000005 0.0
outer loop
vertex 242.167949192431 146.0 -9.99999999999992
vertex 242.485786437626 145.585786437627 -4.99999999999992
vertex 242.485786437626 145.585786437627 -9.99999999999992
endloop
endfacet
facet normal 1.80411241501588e-016 1.0 0.0
outer loop
vertex 243.9 145.0 -4.99999999999992
vertex 244.417638090205 145.068148347422 -9.99999999999992
vertex 243.9 145.0 -9.99999999999992
endloop
endfacet
facet normal -0.258819045102521 0.965925826289068 0.0
outer loop
vertex 244.417638090205 145.068148347422 -9.99999999999992
vertex 243.9 145.0 -4.99999999999992
vertex 244.417638090205 145.068148347422 -4.99999999999992
endloop
endfacet
facet normal 0.866025403784436 0.500000000000005 0.0
outer loop
vertex 242.167949192431 146.0 -4.99999999999992
vertex 241.968148347421 146.482361909795 -9.99999999999992
vertex 241.968148347421 146.482361909795 -4.99999999999992
endloop
endfacet
facet normal 0.965925826289067 0.258819045102525 0.0
outer loop
vertex 241.968148347421 146.482361909795 -9.99999999999992
vertex 242.167949192431 146.0 -4.99999999999992
vertex 242.167949192431 146.0 -9.99999999999992
endloop
endfacet
facet normal 0.965925826289067 0.258819045102525 0.0
outer loop
vertex 241.968148347421 146.482361909795 -4.99999999999992
vertex 241.9 147.0 -9.99999999999992
vertex 241.9 147.0 -4.99999999999992
endloop
endfacet
facet normal 1.0 -5.36855637327463e-016 0.0
outer loop
vertex 241.9 147.0 -9.99999999999992
vertex 241.968148347421 146.482361909795 -4.99999999999992
vertex 241.968148347421 146.482361909795 -9.99999999999992
endloop
endfacet
facet normal 1.0 -5.36855637327463e-016 0.0
outer loop
vertex 241.9 147.0 -4.99999999999992
vertex 241.968148347421 147.517638090205 -9.99999999999992
vertex 241.968148347421 147.517638090205 -4.99999999999992
endloop
endfacet
facet normal 0.965925826289067 -0.258819045102526 0.0
outer loop
vertex 241.968148347421 147.517638090205 -9.99999999999992
vertex 241.9 147.0 -4.99999999999992
vertex 241.9 147.0 -9.99999999999992
endloop
endfacet
facet normal 0.499999999999998 -0.86602540378444 0.0
outer loop
vertex 242.9 148.732050807569 -4.99999999999992
vertex 242.485786437626 148.414213562373 -9.99999999999992
vertex 242.9 148.732050807569 -9.99999999999992
endloop
endfacet
facet normal 0.707106781186551 -0.707106781186544 0.0
outer loop
vertex 242.485786437626 148.414213562373 -9.99999999999992
vertex 242.9 148.732050807569 -4.99999999999992
vertex 242.485786437626 148.414213562373 -4.99999999999992
endloop
endfacet
facet normal 0.707106781186553 0.707106781186542 0.0
outer loop
vertex 242.485786437626 145.585786437627 -4.99999999999992
vertex 242.9 145.267949192431 -9.99999999999992
vertex 242.485786437626 145.585786437627 -9.99999999999992
endloop
endfacet
facet normal 0.499999999999998 0.86602540378444 0.0
outer loop
vertex 242.9 145.267949192431 -9.99999999999992
vertex 242.485786437626 145.585786437627 -4.99999999999992
vertex 242.9 145.267949192431 -4.99999999999992
endloop
endfacet
facet normal 0.258819045102521 -0.965925826289069 0.0
outer loop
vertex 243.382361909795 148.931851652578 -4.99999999999992
vertex 242.9 148.732050807569 -9.99999999999992
vertex 243.382361909795 148.931851652578 -9.99999999999992
endloop
endfacet
facet normal 0.499999999999998 -0.86602540378444 0.0
outer loop
vertex 242.9 148.732050807569 -9.99999999999992
vertex 243.382361909795 148.931851652578 -4.99999999999992
vertex 242.9 148.732050807569 -4.99999999999992
endloop
endfacet
facet normal -1.52598883574427e-015 -1.0 0.0
outer loop
vertex 243.9 149.0 -4.99999999999992
vertex 243.382361909795 148.931851652578 -9.99999999999992
vertex 243.9 149.0 -9.99999999999992
endloop
endfacet
facet normal 0.258819045102521 -0.965925826289069 0.0
outer loop
vertex 243.382361909795 148.931851652578 -9.99999999999992
vertex 243.9 149.0 -4.99999999999992
vertex 243.382361909795 148.931851652578 -4.99999999999992
endloop
endfacet
facet normal -0.258819045102521 -0.965925826289068 0.0
outer loop
vertex 244.417638090205 148.931851652578 -4.99999999999992
vertex 243.9 149.0 -9.99999999999992
vertex 244.417638090205 148.931851652578 -9.99999999999992
endloop
endfacet
facet normal -1.52598883574427e-015 -1.0 0.0
outer loop
vertex 243.9 149.0 -9.99999999999992
vertex 244.417638090205 148.931851652578 -4.99999999999992
vertex 243.9 149.0 -4.99999999999992
endloop
endfacet
facet normal -0.499999999999998 -0.86602540378444 0.0
outer loop
vertex 244.9 148.732050807569 -4.99999999999992
vertex 244.417638090205 148.931851652578 -9.99999999999992
vertex 244.9 148.732050807569 -9.99999999999992
endloop
endfacet
facet normal -0.258819045102521 -0.965925826289068 0.0
outer loop
vertex 244.417638090205 148.931851652578 -9.99999999999992
vertex 244.9 148.732050807569 -4.99999999999992
vertex 244.417638090205 148.931851652578 -4.99999999999992
endloop
endfacet
facet normal -0.707106781186553 -0.707106781186542 0.0
outer loop
vertex 245.314213562373 148.414213562373 -4.99999999999992
vertex 244.9 148.732050807569 -9.99999999999992
vertex 245.314213562373 148.414213562373 -9.99999999999992
endloop
endfacet
facet normal -0.499999999999998 -0.86602540378444 0.0
outer loop
vertex 244.9 148.732050807569 -9.99999999999992
vertex 245.314213562373 148.414213562373 -4.99999999999992
vertex 244.9 148.732050807569 -4.99999999999992
endloop
endfacet
facet normal -0.965925826289067 -0.258819045102526 0.0
outer loop
vertex 245.831851652578 147.517638090205 -9.99999999999992
vertex 245.632050807568 148.0 -4.99999999999992
vertex 245.632050807568 148.0 -9.99999999999992
endloop
endfacet
facet normal -0.866025403784436 -0.500000000000005 0.0
outer loop
vertex 245.632050807568 148.0 -4.99999999999992
vertex 245.831851652578 147.517638090205 -9.99999999999992
vertex 245.831851652578 147.517638090205 -4.99999999999992
endloop
endfacet
facet normal -0.866025403784436 -0.500000000000005 0.0
outer loop
vertex 245.632050807568 148.0 -9.99999999999992
vertex 245.314213562373 148.414213562373 -4.99999999999992
vertex 245.314213562373 148.414213562373 -9.99999999999992
endloop
endfacet
facet normal -0.707106781186553 -0.707106781186542 0.0
outer loop
vertex 245.314213562373 148.414213562373 -4.99999999999992
vertex 245.632050807568 148.0 -9.99999999999992
vertex 245.632050807568 148.0 -4.99999999999992
endloop
endfacet
facet normal -0.258819045102521 0.965925826289068 0.0
outer loop
vertex 244.417638090205 145.068148347422 -4.99999999999992
vertex 244.9 145.267949192431 -9.99999999999992
vertex 244.417638090205 145.068148347422 -9.99999999999992
endloop
endfacet
facet normal -0.499999999999998 0.86602540378444 0.0
outer loop
vertex 244.9 145.267949192431 -9.99999999999992
vertex 244.417638090205 145.068148347422 -4.99999999999992
vertex 244.9 145.267949192431 -4.99999999999992
endloop
endfacet
facet normal -0.866025403784436 0.500000000000004 0.0
outer loop
vertex 245.632050807568 146.0 -9.99999999999992
vertex 245.831851652578 146.482361909795 -4.99999999999992
vertex 245.831851652578 146.482361909795 -9.99999999999992
endloop
endfacet
facet normal -0.965925826289067 0.258819045102525 0.0
outer loop
vertex 245.831851652578 146.482361909795 -4.99999999999992
vertex 245.632050807568 146.0 -9.99999999999992
vertex 245.632050807568 146.0 -4.99999999999992
endloop
endfacet
facet normal -1.0 5.27944527431816e-016 0.0
outer loop
vertex 245.9 147.0 -9.99999999999992
vertex 245.831851652578 147.517638090205 -4.99999999999992
vertex 245.831851652578 147.517638090205 -9.99999999999992
endloop
endfacet
facet normal -0.965925826289067 -0.258819045102526 0.0
outer loop
vertex 245.831851652578 147.517638090205 -4.99999999999992
vertex 245.9 147.0 -9.99999999999992
vertex 245.9 147.0 -4.99999999999992
endloop
endfacet
facet normal -0.499999999999998 0.86602540378444 0.0
outer loop
vertex 244.9 145.267949192431 -4.99999999999992
vertex 245.314213562373 145.585786437627 -9.99999999999992
vertex 244.9 145.267949192431 -9.99999999999992
endloop
endfacet
facet normal -0.707106781186553 0.707106781186542 0.0
outer loop
vertex 245.314213562373 145.585786437627 -9.99999999999992
vertex 244.9 145.267949192431 -4.99999999999992
vertex 245.314213562373 145.585786437627 -4.99999999999992
endloop
endfacet
facet normal -0.707106781186553 0.707106781186542 0.0
outer loop
vertex 245.314213562373 145.585786437627 -9.99999999999992
vertex 245.632050807568 146.0 -4.99999999999992
vertex 245.632050807568 146.0 -9.99999999999992
endloop
endfacet
facet normal -0.866025403784436 0.500000000000004 0.0
outer loop
vertex 245.632050807568 146.0 -4.99999999999992
vertex 245.314213562373 145.585786437627 -9.99999999999992
vertex 245.314213562373 145.585786437627 -4.99999999999992
endloop
endfacet
facet normal -0.965925826289067 0.258819045102525 0.0
outer loop
vertex 245.831851652578 146.482361909795 -9.99999999999992
vertex 245.9 147.0 -4.99999999999992
vertex 245.9 147.0 -9.99999999999992
endloop
endfacet
facet normal -1.0 5.27944527431816e-016 0.0
outer loop
vertex 245.9 147.0 -4.99999999999992
vertex 245.831851652578 146.482361909795 -9.99999999999992
vertex 245.831851652578 146.482361909795 -4.99999999999992
endloop
endfacet
facet normal -1.0 1.80411241501588e-016 0.0
outer loop
vertex 245.9 14.0000000000001 -9.99999999999992
vertex 245.831851652578 14.5176380902051 -4.99999999999992
vertex 245.831851652578 14.5176380902051 -9.99999999999992
endloop
endfacet
facet normal -0.965925826289067 -0.258819045102527 0.0
outer loop
vertex 245.831851652578 14.5176380902051 -4.99999999999992
vertex 245.9 14.0000000000001 -9.99999999999992
vertex 245.9 14.0000000000001 -4.99999999999992
endloop
endfacet
facet normal -0.965925826289067 0.258819045102527 0.0
outer loop
vertex 245.831851652578 13.482361909795 -9.99999999999992
vertex 245.9 14.0000000000001 -4.99999999999992
vertex 245.9 14.0000000000001 -9.99999999999992
endloop
endfacet
facet normal -1.0 1.80411241501588e-016 0.0
outer loop
vertex 245.9 14.0000000000001 -4.99999999999992
vertex 245.831851652578 13.482361909795 -9.99999999999992
vertex 245.831851652578 13.482361909795 -4.99999999999992
endloop
endfacet
facet normal -0.965925826289069 -0.258819045102519 0.0
outer loop
vertex 239.070370868554 12.7059047744875 -9.99999999999992
vertex 238.9 14.0000000000001 -4.99999999999992
vertex 238.9 14.0000000000001 -9.99999999999992
endloop
endfacet
facet normal -0.99144486137381 -0.130526192220056 0.0
outer loop
vertex 238.9 14.0000000000001 -4.99999999999992
vertex 239.070370868554 12.7059047744875 -9.99999999999992
vertex 239.070370868554 12.7059047744875 -4.99999999999992
endloop
endfacet
facet normal 0.258819045102519 -0.965925826289069 0.0
outer loop
vertex 245.194095225512 9.17037086855476 -4.99999999999992
vertex 243.9 9.0000000000001 -9.99999999999992
vertex 245.194095225512 9.17037086855476 -9.99999999999992
endloop
endfacet
facet normal -1.80411241501588e-016 -1.0 0.0
outer loop
vertex 243.9 9.0000000000001 -9.99999999999992
vertex 245.194095225512 9.17037086855476 -4.99999999999992
vertex 243.9 9.0000000000001 -4.99999999999992
endloop
endfacet
facet normal -0.258819045102527 0.965925826289067 0.0
outer loop
vertex 244.417638090205 12.0681483474219 -4.99999999999992
vertex 244.9 12.2679491924312 -9.99999999999992
vertex 244.417638090205 12.0681483474219 -9.99999999999992
endloop
endfacet
facet normal -0.500000000000004 0.866025403784437 0.0
outer loop
vertex 244.9 12.2679491924312 -9.99999999999992
vertex 244.417638090205 12.0681483474219 -4.99999999999992
vertex 244.9 12.2679491924312 -4.99999999999992
endloop
endfacet
facet normal -0.258819045102527 -0.965925826289067 0.0
outer loop
vertex 244.417638090205 15.9318516525782 -4.99999999999992
vertex 243.9 16.0000000000001 -9.99999999999992
vertex 244.417638090205 15.9318516525782 -9.99999999999992
endloop
endfacet
facet normal -1.80411241501588e-016 -1.0 0.0
outer loop
vertex 243.9 16.0000000000001 -9.99999999999992
vertex 244.417638090205 15.9318516525782 -4.99999999999992
vertex 243.9 16.0000000000001 -4.99999999999992
endloop
endfacet
facet normal -0.866025403784437 -0.500000000000004 0.0
outer loop
vertex 245.632050807568 15.0000000000001 -9.99999999999992
vertex 245.314213562373 15.4142135623732 -4.99999999999992
vertex 245.314213562373 15.4142135623732 -9.99999999999992
endloop
endfacet
facet normal -0.707106781186548 -0.707106781186547 0.0
outer loop
vertex 245.314213562373 15.4142135623732 -4.99999999999992
vertex 245.632050807568 15.0000000000001 -9.99999999999992
vertex 245.632050807568 15.0000000000001 -4.99999999999992
endloop
endfacet
facet normal 0.965925826289069 -0.258819045102519 0.0
outer loop
vertex 248.729629131445 12.7059047744875 -4.99999999999992
vertex 248.9 14.0000000000001 -9.99999999999992
vertex 248.9 14.0000000000001 -4.99999999999992
endloop
endfacet
facet normal 0.99144486137381 -0.130526192220056 0.0
outer loop
vertex 248.9 14.0000000000001 -9.99999999999992
vertex 248.729629131445 12.7059047744875 -4.99999999999992
vertex 248.729629131445 12.7059047744875 -9.99999999999992
endloop
endfacet
facet normal -1.80411241501588e-016 -1.0 0.0
outer loop
vertex 243.9 16.0000000000001 -4.99999999999992
vertex 243.382361909795 15.9318516525782 -9.99999999999992
vertex 243.9 16.0000000000001 -9.99999999999992
endloop
endfacet
facet normal 0.258819045102527 -0.965925826289067 0.0
outer loop
vertex 243.382361909795 15.9318516525782 -9.99999999999992
vertex 243.9 16.0000000000001 -4.99999999999992
vertex 243.382361909795 15.9318516525782 -4.99999999999992
endloop
endfacet
facet normal -0.866025403784437 0.500000000000004 0.0
outer loop
vertex 245.632050807568 13.0000000000001 -9.99999999999992
vertex 245.831851652578 13.482361909795 -4.99999999999992
vertex 245.831851652578 13.482361909795 -9.99999999999992
endloop
endfacet
facet normal -0.965925826289067 0.258819045102527 0.0
outer loop
vertex 245.831851652578 13.482361909795 -4.99999999999992
vertex 245.632050807568 13.0000000000001 -9.99999999999992
vertex 245.632050807568 13.0000000000001 -4.99999999999992
endloop
endfacet
facet normal -0.707106781186547 0.707106781186548 0.0
outer loop
vertex 245.314213562373 12.585786437627 -9.99999999999992
vertex 245.632050807568 13.0000000000001 -4.99999999999992
vertex 245.632050807568 13.0000000000001 -9.99999999999992
endloop
endfacet
facet normal -0.866025403784437 0.500000000000004 0.0
outer loop
vertex 245.632050807568 13.0000000000001 -4.99999999999992
vertex 245.314213562373 12.585786437627 -9.99999999999992
vertex 245.314213562373 12.585786437627 -4.99999999999992
endloop
endfacet
facet normal -0.500000000000001 -0.866025403784438 0.0
outer loop
vertex 241.4 9.6698729810779 -4.99999999999992
vertex 240.364466094067 10.4644660940674 -9.99999999999992
vertex 241.4 9.6698729810779 -9.99999999999992
endloop
endfacet
facet normal -0.707106781186548 -0.707106781186547 0.0
outer loop
vertex 240.364466094067 10.4644660940674 -9.99999999999992
vertex 241.4 9.6698729810779 -4.99999999999992
vertex 240.364466094067 10.4644660940674 -4.99999999999992
endloop
endfacet
facet normal 1.80411241501588e-016 1.0 0.0
outer loop
vertex 243.9 12.0000000000001 -4.99999999999992
vertex 244.417638090205 12.0681483474219 -9.99999999999992
vertex 243.9 12.0000000000001 -9.99999999999992
endloop
endfacet
facet normal -0.258819045102527 0.965925826289067 0.0
outer loop
vertex 244.417638090205 12.0681483474219 -9.99999999999992
vertex 243.9 12.0000000000001 -4.99999999999992
vertex 244.417638090205 12.0681483474219 -4.99999999999992
endloop
endfacet
facet normal 0.258819045102527 0.965925826289067 0.0
outer loop
vertex 243.382361909795 12.0681483474219 -4.99999999999992
vertex 243.9 12.0000000000001 -9.99999999999992
vertex 243.382361909795 12.0681483474219 -9.99999999999992
endloop
endfacet
facet normal 1.80411241501588e-016 1.0 0.0
outer loop
vertex 243.9 12.0000000000001 -9.99999999999992
vertex 243.382361909795 12.0681483474219 -4.99999999999992
vertex 243.9 12.0000000000001 -4.99999999999992
endloop
endfacet
facet normal 0.500000000000004 0.866025403784437 0.0
outer loop
vertex 242.9 12.2679491924312 -4.99999999999992
vertex 243.382361909795 12.0681483474219 -9.99999999999992
vertex 242.9 12.2679491924312 -9.99999999999992
endloop
endfacet
facet normal 0.258819045102527 0.965925826289067 0.0
outer loop
vertex 243.382361909795 12.0681483474219 -9.99999999999992
vertex 242.9 12.2679491924312 -4.99999999999992
vertex 243.382361909795 12.0681483474219 -4.99999999999992
endloop
endfacet
facet normal -0.965925826289067 -0.258819045102527 0.0
outer loop
vertex 245.831851652578 14.5176380902051 -9.99999999999992
vertex 245.632050807568 15.0000000000001 -4.99999999999992
vertex 245.632050807568 15.0000000000001 -9.99999999999992
endloop
endfacet
facet normal -0.866025403784437 -0.500000000000004 0.0
outer loop
vertex 245.632050807568 15.0000000000001 -4.99999999999992
vertex 245.831851652578 14.5176380902051 -9.99999999999992
vertex 245.831851652578 14.5176380902051 -4.99999999999992
endloop
endfacet
facet normal -0.500000000000004 0.866025403784437 0.0
outer loop
vertex 244.9 12.2679491924312 -4.99999999999992
vertex 245.314213562373 12.585786437627 -9.99999999999992
vertex 244.9 12.2679491924312 -9.99999999999992
endloop
endfacet
facet normal -0.707106781186547 0.707106781186548 0.0
outer loop
vertex 245.314213562373 12.585786437627 -9.99999999999992
vertex 244.9 12.2679491924312 -4.99999999999992
vertex 245.314213562373 12.585786437627 -4.99999999999992
endloop
endfacet
facet normal -0.500000000000004 -0.866025403784437 0.0
outer loop
vertex 244.9 15.732050807569 -4.99999999999992
vertex 244.417638090205 15.9318516525782 -9.99999999999992
vertex 244.9 15.732050807569 -9.99999999999992
endloop
endfacet
facet normal -0.258819045102527 -0.965925826289067 0.0
outer loop
vertex 244.417638090205 15.9318516525782 -9.99999999999992
vertex 244.9 15.732050807569 -4.99999999999992
vertex 244.417638090205 15.9318516525782 -4.99999999999992
endloop
endfacet
facet normal -0.866025403784438 -0.500000000000001 0.0
outer loop
vertex 239.569872981077 11.5000000000001 -9.99999999999992
vertex 239.070370868554 12.7059047744875 -4.99999999999992
vertex 239.070370868554 12.7059047744875 -9.99999999999992
endloop
endfacet
facet normal -0.965925826289069 -0.258819045102519 0.0
outer loop
vertex 239.070370868554 12.7059047744875 -4.99999999999992
vertex 239.569872981077 11.5000000000001 -9.99999999999992
vertex 239.569872981077 11.5000000000001 -4.99999999999992
endloop
endfacet
facet normal 0.866025403784438 -0.500000000000001 0.0
outer loop
vertex 248.230127018922 11.5000000000001 -4.99999999999992
vertex 248.729629131445 12.7059047744875 -9.99999999999992
vertex 248.729629131445 12.7059047744875 -4.99999999999992
endloop
endfacet
facet normal 0.965925826289069 -0.258819045102519 0.0
outer loop
vertex 248.729629131445 12.7059047744875 -9.99999999999992
vertex 248.230127018922 11.5000000000001 -4.99999999999992
vertex 248.230127018922 11.5000000000001 -9.99999999999992
endloop
endfacet
facet normal 0.258819045102527 -0.965925826289067 0.0
outer loop
vertex 243.382361909795 15.9318516525782 -4.99999999999992
vertex 242.9 15.732050807569 -9.99999999999992
vertex 243.382361909795 15.9318516525782 -9.99999999999992
endloop
endfacet
facet normal 0.500000000000004 -0.866025403784437 0.0
outer loop
vertex 242.9 15.732050807569 -9.99999999999992
vertex 243.382361909795 15.9318516525782 -4.99999999999992
vertex 242.9 15.732050807569 -4.99999999999992
endloop
endfacet
facet normal -0.258819045102519 -0.965925826289069 0.0
outer loop
vertex 242.605904774487 9.17037086855476 -4.99999999999992
vertex 241.4 9.6698729810779 -9.99999999999992
vertex 242.605904774487 9.17037086855476 -9.99999999999992
endloop
endfacet
facet normal -0.500000000000001 -0.866025403784438 0.0
outer loop
vertex 241.4 9.6698729810779 -9.99999999999992
vertex 242.605904774487 9.17037086855476 -4.99999999999992
vertex 241.4 9.6698729810779 -4.99999999999992
endloop
endfacet
facet normal 0.500000000000001 -0.866025403784438 0.0
outer loop
vertex 246.4 9.6698729810779 -4.99999999999992
vertex 245.194095225512 9.17037086855476 -9.99999999999992
vertex 246.4 9.6698729810779 -9.99999999999992
endloop
endfacet
facet normal 0.258819045102519 -0.965925826289069 0.0
outer loop
vertex 245.194095225512 9.17037086855476 -9.99999999999992
vertex 246.4 9.6698729810779 -4.99999999999992
vertex 245.194095225512 9.17037086855476 -4.99999999999992
endloop
endfacet
facet normal -0.0 0.0 -1.0
outer loop
vertex 246.4 9.6698729810779 -9.99999999999992
vertex 245.831851652578 13.482361909795 -9.99999999999992
vertex 245.9 14.0000000000001 -9.99999999999992
endloop
endfacet
facet normal -0.0 0.0 -1.0
outer loop
vertex 245.831851652578 13.482361909795 -9.99999999999992
vertex 246.4 9.6698729810779 -9.99999999999992
vertex 245.194095225512 9.17037086855476 -9.99999999999992
endloop
endfacet
facet normal -0.0 0.0 -1.0
outer loop
vertex 245.831851652578 13.482361909795 -9.99999999999992
vertex 245.194095225512 9.17037086855476 -9.99999999999992
vertex 245.632050807568 13.0000000000001 -9.99999999999992
endloop
endfacet
facet normal -0.0 0.0 -1.0
outer loop
vertex 245.632050807568 13.0000000000001 -9.99999999999992
vertex 245.194095225512 9.17037086855476 -9.99999999999992
vertex 245.314213562373 12.585786437627 -9.99999999999992
endloop
endfacet
facet normal -0.0 0.0 -1.0
outer loop
vertex 245.314213562373 12.585786437627 -9.99999999999992
vertex 245.194095225512 9.17037086855476 -9.99999999999992
vertex 244.9 12.2679491924312 -9.99999999999992
endloop
endfacet
facet normal -0.0 0.0 -1.0
outer loop
vertex 244.9 12.2679491924312 -9.99999999999992
vertex 245.194095225512 9.17037086855476 -9.99999999999992
vertex 243.9 9.0000000000001 -9.99999999999992
endloop
endfacet
facet normal -0.0 0.0 -1.0
outer loop
vertex 244.9 12.2679491924312 -9.99999999999992
vertex 243.9 9.0000000000001 -9.99999999999992
vertex 244.417638090205 12.0681483474219 -9.99999999999992
endloop
endfacet
facet normal -0.0 0.0 -1.0
outer loop
vertex 244.417638090205 12.0681483474219 -9.99999999999992
vertex 243.9 9.0000000000001 -9.99999999999992
vertex 243.9 12.0000000000001 -9.99999999999992
endloop
endfacet
facet normal -0.0 0.0 -1.0
outer loop
vertex 243.9 12.0000000000001 -9.99999999999992
vertex 243.9 9.0000000000001 -9.99999999999992
vertex 242.605904774487 9.17037086855476 -9.99999999999992
endloop
endfacet
facet normal -0.0 0.0 -1.0
outer loop
vertex 243.9 12.0000000000001 -9.99999999999992
vertex 242.605904774487 9.17037086855476 -9.99999999999992
vertex 243.382361909795 12.0681483474219 -9.99999999999992
endloop
endfacet
facet normal -0.0 0.0 -1.0
outer loop
vertex 243.382361909795 12.0681483474219 -9.99999999999992
vertex 242.605904774487 9.17037086855476 -9.99999999999992
vertex 242.9 12.2679491924312 -9.99999999999992
endloop
endfacet
facet normal -0.0 0.0 -1.0
outer loop
vertex 242.9 12.2679491924312 -9.99999999999992
vertex 242.605904774487 9.17037086855476 -9.99999999999992
vertex 242.485786437626 12.585786437627 -9.99999999999992
endloop
endfacet
facet normal -0.0 0.0 -1.0
outer loop
vertex 242.485786437626 12.585786437627 -9.99999999999992
vertex 242.605904774487 9.17037086855476 -9.99999999999992
vertex 241.4 9.6698729810779 -9.99999999999992
endloop
endfacet
facet normal -0.0 0.0 -1.0
outer loop
vertex 242.485786437626 12.585786437627 -9.99999999999992
vertex 241.4 9.6698729810779 -9.99999999999992
vertex 242.167949192431 13.0000000000001 -9.99999999999992
endloop
endfacet
facet normal -0.0 0.0 -1.0
outer loop
vertex 242.167949192431 13.0000000000001 -9.99999999999992
vertex 241.4 9.6698729810779 -9.99999999999992
vertex 241.968148347421 13.482361909795 -9.99999999999992
endloop
endfacet
facet normal -0.0 0.0 -1.0
outer loop
vertex 241.968148347421 13.482361909795 -9.99999999999992
vertex 241.4 9.6698729810779 -9.99999999999992
vertex 241.9 14.0000000000001 -9.99999999999992
endloop
endfacet
facet normal -0.0 0.0 -1.0
outer loop
vertex 248.729629131445 12.7059047744875 -9.99999999999992
vertex 248.9 21.0000000000001 -9.99999999999992
vertex 248.9 14.0000000000001 -9.99999999999992
endloop
endfacet
facet normal -0.0 0.0 -1.0
outer loop
vertex 248.9 21.0000000000001 -9.99999999999992
vertex 248.729629131445 12.7059047744875 -9.99999999999992
vertex 238.9 21.0000000000001 -9.99999999999992
endloop
endfacet
facet normal -0.0 0.0 -1.0
outer loop
vertex 238.9 21.0000000000001 -9.99999999999992
vertex 248.729629131445 12.7059047744875 -9.99999999999992
vertex 245.314213562373 15.4142135623732 -9.99999999999992
endloop
endfacet
facet normal -0.0 0.0 -1.0
outer loop
vertex 245.314213562373 15.4142135623732 -9.99999999999992
vertex 248.729629131445 12.7059047744875 -9.99999999999992
vertex 245.632050807568 15.0000000000001 -9.99999999999992
endloop
endfacet
facet normal -0.0 0.0 -1.0
outer loop
vertex 245.632050807568 15.0000000000001 -9.99999999999992
vertex 248.729629131445 12.7059047744875 -9.99999999999992
vertex 248.230127018922 11.5000000000001 -9.99999999999992
endloop
endfacet
facet normal -0.0 0.0 -1.0
outer loop
vertex 245.632050807568 15.0000000000001 -9.99999999999992
vertex 248.230127018922 11.5000000000001 -9.99999999999992
vertex 245.831851652578 14.5176380902051 -9.99999999999992
endloop
endfacet
facet normal -0.0 0.0 -1.0
outer loop
vertex 245.831851652578 14.5176380902051 -9.99999999999992
vertex 248.230127018922 11.5000000000001 -9.99999999999992
vertex 247.435533905932 10.4644660940674 -9.99999999999992
endloop
endfacet
facet normal -0.0 0.0 -1.0
outer loop
vertex 245.831851652578 14.5176380902051 -9.99999999999992
vertex 247.435533905932 10.4644660940674 -9.99999999999992
vertex 245.9 14.0000000000001 -9.99999999999992
endloop
endfacet
facet normal -0.0 0.0 -1.0
outer loop
vertex 245.9 14.0000000000001 -9.99999999999992
vertex 247.435533905932 10.4644660940674 -9.99999999999992
vertex 246.4 9.6698729810779 -9.99999999999992
endloop
endfacet
facet normal -0.0 0.0 -1.0
outer loop
vertex 238.9 21.0000000000001 -9.99999999999992
vertex 245.314213562373 15.4142135623732 -9.99999999999992
vertex 244.9 15.732050807569 -9.99999999999992
endloop
endfacet
facet normal -0.0 0.0 -1.0
outer loop
vertex 238.9 21.0000000000001 -9.99999999999992
vertex 244.9 15.732050807569 -9.99999999999992
vertex 244.417638090205 15.9318516525782 -9.99999999999992
endloop
endfacet
facet normal -0.0 0.0 -1.0
outer loop
vertex 238.9 21.0000000000001 -9.99999999999992
vertex 244.417638090205 15.9318516525782 -9.99999999999992
vertex 243.9 16.0000000000001 -9.99999999999992
endloop
endfacet
facet normal -0.0 0.0 -1.0
outer loop
vertex 238.9 21.0000000000001 -9.99999999999992
vertex 243.9 16.0000000000001 -9.99999999999992
vertex 243.382361909795 15.9318516525782 -9.99999999999992
endloop
endfacet
facet normal -0.0 0.0 -1.0
outer loop
vertex 238.9 21.0000000000001 -9.99999999999992
vertex 243.382361909795 15.9318516525782 -9.99999999999992
vertex 242.9 15.732050807569 -9.99999999999992
endloop
endfacet
facet normal -0.0 0.0 -1.0
outer loop
vertex 238.9 21.0000000000001 -9.99999999999992
vertex 242.9 15.732050807569 -9.99999999999992
vertex 242.485786437626 15.4142135623732 -9.99999999999992
endloop
endfacet
facet normal -0.0 0.0 -1.0
outer loop
vertex 238.9 21.0000000000001 -9.99999999999992
vertex 242.485786437626 15.4142135623732 -9.99999999999992
vertex 242.167949192431 15.0000000000001 -9.99999999999992
endloop
endfacet
facet normal -0.0 0.0 -1.0
outer loop
vertex 238.9 21.0000000000001 -9.99999999999992
vertex 242.167949192431 15.0000000000001 -9.99999999999992
vertex 241.968148347421 14.5176380902051 -9.99999999999992
endloop
endfacet
facet normal -0.0 0.0 -1.0
outer loop
vertex 238.9 21.0000000000001 -9.99999999999992
vertex 241.968148347421 14.5176380902051 -9.99999999999992
vertex 241.9 14.0000000000001 -9.99999999999992
endloop
endfacet
facet normal -0.0 0.0 -1.0
outer loop
vertex 238.9 21.0000000000001 -9.99999999999992
vertex 241.9 14.0000000000001 -9.99999999999992
vertex 241.4 9.6698729810779 -9.99999999999992
endloop
endfacet
facet normal -0.0 0.0 -1.0
outer loop
vertex 238.9 21.0000000000001 -9.99999999999992
vertex 241.4 9.6698729810779 -9.99999999999992
vertex 240.364466094067 10.4644660940674 -9.99999999999992
endloop
endfacet
facet normal -0.0 0.0 -1.0
outer loop
vertex 238.9 21.0000000000001 -9.99999999999992
vertex 240.364466094067 10.4644660940674 -9.99999999999992
vertex 239.569872981077 11.5000000000001 -9.99999999999992
endloop
endfacet
facet normal -0.0 0.0 -1.0
outer loop
vertex 238.9 21.0000000000001 -9.99999999999992
vertex 239.569872981077 11.5000000000001 -9.99999999999992
vertex 239.070370868554 12.7059047744875 -9.99999999999992
endloop
endfacet
facet normal -0.0 0.0 -1.0
outer loop
vertex 238.9 21.0000000000001 -9.99999999999992
vertex 239.070370868554 12.7059047744875 -9.99999999999992
vertex 238.9 14.0000000000001 -9.99999999999992
endloop
endfacet
facet normal -0.707106781186548 -0.707106781186547 0.0
outer loop
vertex 245.314213562373 15.4142135623732 -4.99999999999992
vertex 244.9 15.732050807569 -9.99999999999992
vertex 245.314213562373 15.4142135623732 -9.99999999999992
endloop
endfacet
facet normal -0.500000000000004 -0.866025403784437 0.0
outer loop
vertex 244.9 15.732050807569 -9.99999999999992
vertex 245.314213562373 15.4142135623732 -4.99999999999992
vertex 244.9 15.732050807569 -4.99999999999992
endloop
endfacet
facet normal -1.80411241501588e-016 -1.0 0.0
outer loop
vertex 243.9 9.0000000000001 -4.99999999999992
vertex 242.605904774487 9.17037086855476 -9.99999999999992
vertex 243.9 9.0000000000001 -9.99999999999992
endloop
endfacet
facet normal -0.258819045102519 -0.965925826289069 0.0
outer loop
vertex 242.605904774487 9.17037086855476 -9.99999999999992
vertex 243.9 9.0000000000001 -4.99999999999992
vertex 242.605904774487 9.17037086855476 -4.99999999999992
endloop
endfacet
facet normal -0.707106781186548 -0.707106781186547 0.0
outer loop
vertex 240.364466094067 10.4644660940674 -9.99999999999992
vertex 239.569872981077 11.5000000000001 -4.99999999999992
vertex 239.569872981077 11.5000000000001 -9.99999999999992
endloop
endfacet
facet normal -0.866025403784438 -0.500000000000001 0.0
outer loop
vertex 239.569872981077 11.5000000000001 -4.99999999999992
vertex 240.364466094067 10.4644660940674 -9.99999999999992
vertex 240.364466094067 10.4644660940674 -4.99999999999992
endloop
endfacet
facet normal 0.707106781186547 -0.707106781186548 0.0
outer loop
vertex 247.435533905932 10.4644660940674 -4.99999999999992
vertex 248.230127018922 11.5000000000001 -9.99999999999992
vertex 248.230127018922 11.5000000000001 -4.99999999999992
endloop
endfacet
facet normal 0.866025403784438 -0.500000000000001 0.0
outer loop
vertex 248.230127018922 11.5000000000001 -9.99999999999992
vertex 247.435533905932 10.4644660940674 -4.99999999999992
vertex 247.435533905932 10.4644660940674 -9.99999999999992
endloop
endfacet
facet normal 0.707106781186547 -0.707106781186548 0.0
outer loop
vertex 247.435533905932 10.4644660940674 -4.99999999999992
vertex 246.4 9.6698729810779 -9.99999999999992
vertex 247.435533905932 10.4644660940674 -9.99999999999992
endloop
endfacet
facet normal 0.500000000000001 -0.866025403784438 0.0
outer loop
vertex 246.4 9.6698729810779 -9.99999999999992
vertex 247.435533905932 10.4644660940674 -4.99999999999992
vertex 246.4 9.6698729810779 -4.99999999999992
endloop
endfacet
facet normal 0.965925826289067 -0.258819045102527 0.0
outer loop
vertex 241.968148347421 14.5176380902051 -4.99999999999992
vertex 242.167949192431 15.0000000000001 -9.99999999999992
vertex 242.167949192431 15.0000000000001 -4.99999999999992
endloop
endfacet
facet normal 0.866025403784437 -0.500000000000004 0.0
outer loop
vertex 242.167949192431 15.0000000000001 -9.99999999999992
vertex 241.968148347421 14.5176380902051 -4.99999999999992
vertex 241.968148347421 14.5176380902051 -9.99999999999992
endloop
endfacet
facet normal 0.866025403784437 -0.500000000000004 0.0
outer loop
vertex 242.167949192431 15.0000000000001 -4.99999999999992
vertex 242.485786437626 15.4142135623732 -9.99999999999992
vertex 242.485786437626 15.4142135623732 -4.99999999999992
endloop
endfacet
facet normal 0.707106781186547 -0.707106781186548 0.0
outer loop
vertex 242.485786437626 15.4142135623732 -9.99999999999992
vertex 242.167949192431 15.0000000000001 -4.99999999999992
vertex 242.167949192431 15.0000000000001 -9.99999999999992
endloop
endfacet
facet normal 0.965925826289067 0.258819045102527 0.0
outer loop
vertex 241.968148347421 13.482361909795 -4.99999999999992
vertex 241.9 14.0000000000001 -9.99999999999992
vertex 241.9 14.0000000000001 -4.99999999999992
endloop
endfacet
facet normal 1.0 -1.80411241501588e-016 0.0
outer loop
vertex 241.9 14.0000000000001 -9.99999999999992
vertex 241.968148347421 13.482361909795 -4.99999999999992
vertex 241.968148347421 13.482361909795 -9.99999999999992
endloop
endfacet
facet normal 1.0 -1.80411241501588e-016 0.0
outer loop
vertex 241.9 14.0000000000001 -4.99999999999992
vertex 241.968148347421 14.5176380902051 -9.99999999999992
vertex 241.968148347421 14.5176380902051 -4.99999999999992
endloop
endfacet
facet normal 0.965925826289067 -0.258819045102527 0.0
outer loop
vertex 241.968148347421 14.5176380902051 -9.99999999999992
vertex 241.9 14.0000000000001 -4.99999999999992
vertex 241.9 14.0000000000001 -9.99999999999992
endloop
endfacet
facet normal 0.500000000000004 -0.866025403784437 0.0
outer loop
vertex 242.9 15.732050807569 -4.99999999999992
vertex 242.485786437626 15.4142135623732 -9.99999999999992
vertex 242.9 15.732050807569 -9.99999999999992
endloop
endfacet
facet normal 0.707106781186547 -0.707106781186548 0.0
outer loop
vertex 242.485786437626 15.4142135623732 -9.99999999999992
vertex 242.9 15.732050807569 -4.99999999999992
vertex 242.485786437626 15.4142135623732 -4.99999999999992
endloop
endfacet
facet normal 0.707106781186548 0.707106781186547 0.0
outer loop
vertex 242.485786437626 12.585786437627 -4.99999999999992
vertex 242.167949192431 13.0000000000001 -9.99999999999992
vertex 242.167949192431 13.0000000000001 -4.99999999999992
endloop
endfacet
facet normal 0.866025403784437 0.500000000000004 0.0
outer loop
vertex 242.167949192431 13.0000000000001 -9.99999999999992
vertex 242.485786437626 12.585786437627 -4.99999999999992
vertex 242.485786437626 12.585786437627 -9.99999999999992
endloop
endfacet
facet normal 0.866025403784437 0.500000000000004 0.0
outer loop
vertex 242.167949192431 13.0000000000001 -4.99999999999992
vertex 241.968148347421 13.482361909795 -9.99999999999992
vertex 241.968148347421 13.482361909795 -4.99999999999992
endloop
endfacet
facet normal 0.965925826289067 0.258819045102527 0.0
outer loop
vertex 241.968148347421 13.482361909795 -9.99999999999992
vertex 242.167949192431 13.0000000000001 -4.99999999999992
vertex 242.167949192431 13.0000000000001 -9.99999999999992
endloop
endfacet
facet normal 0.707106781186548 0.707106781186547 0.0
outer loop
vertex 242.485786437626 12.585786437627 -4.99999999999992
vertex 242.9 12.2679491924312 -9.99999999999992
vertex 242.485786437626 12.585786437627 -9.99999999999992
endloop
endfacet
facet normal 0.500000000000004 0.866025403784437 0.0
outer loop
vertex 242.9 12.2679491924312 -9.99999999999992
vertex 242.485786437626 12.585786437627 -4.99999999999992
vertex 242.9 12.2679491924312 -4.99999999999992
endloop
endfacet
endsolid TEC-1G_v1
